<svg width="11" height="18" viewBox="0 0 11 18" fill="none" xmlns="http://www.w3.org/2000/svg">
<path d="M1.74176 17.9999C1.96583 18.0005 2.18722 17.9581 2.38967 17.8758C2.59212 17.7935 2.77048 17.6733 2.91164 17.5242L10.1559 9.81065C10.3765 9.58062 10.4971 9.29208 10.4971 8.9943C10.4971 8.69653 10.3765 8.40799 10.1559 8.17795L2.65667 0.464422C2.40209 0.201883 2.03626 0.0367823 1.63966 0.00543997C1.24305 -0.0259023 0.848172 0.0790813 0.541877 0.297295C0.235582 0.515509 0.0429651 0.829079 0.00639891 1.16902C-0.0301673 1.50897 0.0923124 1.84744 0.346896 2.10998L7.05124 9.00073L0.571875 15.8915C0.388468 16.0802 0.271964 16.31 0.236148 16.5537C0.200332 16.7973 0.246702 17.0447 0.369774 17.2665C0.492847 17.4883 0.687467 17.6753 0.930609 17.8052C1.17375 17.9352 1.45524 18.0027 1.74176 17.9999Z" fill="#80542B"/>
</svg>
