<svg width="23" height="30" viewBox="0 0 23 30" fill="none" xmlns="http://www.w3.org/2000/svg">
<path d="M10.0805 29.3259C6.95391 25.5544 0 16.4136 0 11.2792C0 5.04979 5.14865 0 11.5 0C17.849 0 23 5.04979 23 11.2792C23 16.4136 15.9922 25.5544 12.9195 29.3259C12.1828 30.2247 10.8172 30.2247 10.0805 29.3259ZM11.5 15.0389C13.6143 15.0389 15.3333 13.3529 15.3333 11.2792C15.3333 9.20546 13.6143 7.51946 11.5 7.51946C9.38568 7.51946 7.66667 9.20546 7.66667 11.2792C7.66667 13.3529 9.38568 15.0389 11.5 15.0389Z" fill="#80542B"/>
</svg>
