<svg width="23" height="23" viewBox="0 0 23 23" fill="none" xmlns="http://www.w3.org/2000/svg">
<path d="M8.146 15.3334C8.9399 15.3334 9.5835 14.6898 9.5835 13.8959C9.5835 13.102 8.9399 12.4584 8.146 12.4584C7.35209 12.4584 6.7085 13.102 6.7085 13.8959C6.7085 14.6898 7.35209 15.3334 8.146 15.3334Z" fill="white"/>
<path d="M14.854 15.3334C15.6479 15.3334 16.2915 14.6898 16.2915 13.8959C16.2915 13.102 15.6479 12.4584 14.854 12.4584C14.0601 12.4584 13.4165 13.102 13.4165 13.8959C13.4165 14.6898 14.0601 15.3334 14.854 15.3334Z" fill="white"/>
<path d="M11.5002 1.91663C7.66683 1.91663 3.8335 2.39579 3.8335 5.74996V14.8541C3.8335 16.7037 5.33808 18.2083 7.18766 18.2083L5.75016 19.6458V20.125H7.66683L9.5835 18.2083H13.4168L15.3335 20.125H17.2502V19.6458L15.8127 18.2083C17.6622 18.2083 19.1668 16.7037 19.1668 14.8541V5.74996C19.1668 2.39579 15.3335 1.91663 11.5002 1.91663ZM11.5002 3.83329C14.8639 3.83329 16.2535 4.29329 16.8381 4.79163H6.16225C6.74683 4.29329 8.13641 3.83329 11.5002 3.83329ZM5.75016 6.70829H10.5418V9.58329H5.75016V6.70829ZM17.2502 14.8541C17.2502 15.6495 16.6081 16.2916 15.8127 16.2916H7.18766C6.39225 16.2916 5.75016 15.6495 5.75016 14.8541V11.5H17.2502V14.8541ZM17.2502 9.58329H12.4585V6.70829H17.2502V9.58329Z" fill="white"/>
</svg>
