<svg width="47" height="47" viewBox="0 0 47 47" fill="none" xmlns="http://www.w3.org/2000/svg">
<path d="M39.2646 21.5416H7.73542C6.70794 21.5416 5.875 22.3746 5.875 23.402V23.5979C5.875 24.6254 6.70794 25.4583 7.73542 25.4583H39.2646C40.2921 25.4583 41.125 24.6254 41.125 23.5979V23.402C41.125 22.3746 40.2921 21.5416 39.2646 21.5416Z" fill="#F7D2B1"/>
<path d="M39.2646 31.3334H7.73542C6.70794 31.3334 5.875 32.1663 5.875 33.1938V33.3896C5.875 34.4171 6.70794 35.25 7.73542 35.25H39.2646C40.2921 35.25 41.125 34.4171 41.125 33.3896V33.1938C41.125 32.1663 40.2921 31.3334 39.2646 31.3334Z" fill="#F7D2B1"/>
<path d="M39.2646 11.75H7.73542C6.70794 11.75 5.875 12.5829 5.875 13.6104V13.8063C5.875 14.8337 6.70794 15.6667 7.73542 15.6667H39.2646C40.2921 15.6667 41.125 14.8337 41.125 13.8063V13.6104C41.125 12.5829 40.2921 11.75 39.2646 11.75Z" fill="#F7D2B1"/>
</svg>
