<svg width="23" height="23" viewBox="0 0 23 23" fill="none" xmlns="http://www.w3.org/2000/svg">
<path d="M8.146 15.3335C8.9399 15.3335 9.5835 14.6899 9.5835 13.896C9.5835 13.1021 8.9399 12.4585 8.146 12.4585C7.35209 12.4585 6.7085 13.1021 6.7085 13.896C6.7085 14.6899 7.35209 15.3335 8.146 15.3335Z" fill="#0D0D0D"/>
<path d="M14.854 15.3335C15.6479 15.3335 16.2915 14.6899 16.2915 13.896C16.2915 13.1021 15.6479 12.4585 14.854 12.4585C14.0601 12.4585 13.4165 13.1021 13.4165 13.896C13.4165 14.6899 14.0601 15.3335 14.854 15.3335Z" fill="#0D0D0D"/>
<path d="M11.5002 1.9165C7.66683 1.9165 3.8335 2.39567 3.8335 5.74984V14.854C3.8335 16.7036 5.33808 18.2082 7.18766 18.2082L5.75016 19.6457V20.1248H7.66683L9.5835 18.2082H13.4168L15.3335 20.1248H17.2502V19.6457L15.8127 18.2082C17.6622 18.2082 19.1668 16.7036 19.1668 14.854V5.74984C19.1668 2.39567 15.3335 1.9165 11.5002 1.9165ZM11.5002 3.83317C14.8639 3.83317 16.2535 4.29317 16.8381 4.7915H6.16225C6.74683 4.29317 8.13641 3.83317 11.5002 3.83317ZM5.75016 6.70817H10.5418V9.58317H5.75016V6.70817ZM17.2502 14.854C17.2502 15.6494 16.6081 16.2915 15.8127 16.2915H7.18766C6.39225 16.2915 5.75016 15.6494 5.75016 14.854V11.4998H17.2502V14.854ZM17.2502 9.58317H12.4585V6.70817H17.2502V9.58317Z" fill="#0D0D0D"/>
</svg>
