<svg width="39" height="39" viewBox="0 0 39 39" fill="none" xmlns="http://www.w3.org/2000/svg">
<path fill-rule="evenodd" clip-rule="evenodd" d="M31.4168 36.8335C32.8534 36.8335 34.2312 36.2628 35.247 35.247C36.2628 34.2312 36.8335 32.8534 36.8335 31.4168C36.8335 29.9802 36.2628 28.6025 35.247 27.5867C34.2312 26.5708 32.8534 26.0002 31.4168 26.0002C29.9802 26.0002 28.6025 26.5708 27.5867 27.5867C26.5708 28.6025 26.0002 29.9802 26.0002 31.4168C26.0002 32.8534 26.5708 34.2312 27.5867 35.247C28.6025 36.2628 29.9802 36.8335 31.4168 36.8335ZM31.4168 39.0002C33.4281 39.0002 35.3569 38.2012 36.7791 36.7791C38.2012 35.3569 39.0002 33.4281 39.0002 31.4168C39.0002 29.4056 38.2012 27.4768 36.7791 26.0546C35.3569 24.6325 33.4281 23.8335 31.4168 23.8335C29.4056 23.8335 27.4768 24.6325 26.0546 26.0546C24.6325 27.4768 23.8335 29.4056 23.8335 31.4168C23.8335 33.4281 24.6325 35.3569 26.0546 36.7791C27.4768 38.2012 29.4056 39.0002 31.4168 39.0002Z" fill="#80542B"/>
<path fill-rule="evenodd" clip-rule="evenodd" d="M31.4168 27.625C31.7041 27.625 31.9797 27.7391 32.1829 27.9423C32.386 28.1455 32.5002 28.421 32.5002 28.7083V30.9682L33.2661 31.7341C33.4634 31.9384 33.5726 32.2121 33.5701 32.4961C33.5677 32.7801 33.4537 33.0519 33.2529 33.2527C33.052 33.4536 32.7803 33.5675 32.4963 33.57C32.2122 33.5724 31.9386 33.4633 31.7342 33.2659L30.3335 31.8652V28.7083C30.3335 28.421 30.4476 28.1455 30.6508 27.9423C30.854 27.7391 31.1295 27.625 31.4168 27.625ZM8.66683 18.4167H6.50016V20.5833H8.66683V18.4167ZM6.50016 16.25C5.92553 16.25 5.37443 16.4783 4.9681 16.8846C4.56177 17.2909 4.3335 17.842 4.3335 18.4167V20.5833C4.3335 21.158 4.56177 21.7091 4.9681 22.1154C5.37443 22.5217 5.92553 22.75 6.50016 22.75H8.66683C9.24146 22.75 9.79256 22.5217 10.1989 22.1154C10.6052 21.7091 10.8335 21.158 10.8335 20.5833V18.4167C10.8335 17.842 10.6052 17.2909 10.1989 16.8846C9.79256 16.4783 9.24146 16.25 8.66683 16.25H6.50016ZM17.3335 18.4167H15.1668V20.5833H17.3335V18.4167ZM15.1668 16.25C14.5922 16.25 14.0411 16.4783 13.6348 16.8846C13.2284 17.2909 13.0002 17.842 13.0002 18.4167V20.5833C13.0002 21.158 13.2284 21.7091 13.6348 22.1154C14.0411 22.5217 14.5922 22.75 15.1668 22.75H17.3335C17.9081 22.75 18.4592 22.5217 18.8656 22.1154C19.2719 21.7091 19.5002 21.158 19.5002 20.5833V18.4167C19.5002 17.842 19.2719 17.2909 18.8656 16.8846C18.4592 16.4783 17.9081 16.25 17.3335 16.25H15.1668ZM26.0002 18.4167H23.8335V20.5833H26.0002V18.4167ZM23.8335 16.25C23.2589 16.25 22.7078 16.4783 22.3014 16.8846C21.8951 17.2909 21.6668 17.842 21.6668 18.4167V20.5833C21.6668 21.158 21.8951 21.7091 22.3014 22.1154C22.7078 22.5217 23.2589 22.75 23.8335 22.75H26.0002C26.5748 22.75 27.1259 22.5217 27.5322 22.1154C27.9386 21.7091 28.1668 21.158 28.1668 20.5833V18.4167C28.1668 17.842 27.9386 17.2909 27.5322 16.8846C27.1259 16.4783 26.5748 16.25 26.0002 16.25H23.8335ZM8.66683 27.0833H6.50016V29.25H8.66683V27.0833ZM6.50016 24.9167C5.92553 24.9167 5.37443 25.1449 4.9681 25.5513C4.56177 25.9576 4.3335 26.5087 4.3335 27.0833V29.25C4.3335 29.8246 4.56177 30.3757 4.9681 30.7821C5.37443 31.1884 5.92553 31.4167 6.50016 31.4167H8.66683C9.24146 31.4167 9.79256 31.1884 10.1989 30.7821C10.6052 30.3757 10.8335 29.8246 10.8335 29.25V27.0833C10.8335 26.5087 10.6052 25.9576 10.1989 25.5513C9.79256 25.1449 9.24146 24.9167 8.66683 24.9167H6.50016ZM17.3335 27.0833H15.1668V29.25H17.3335V27.0833ZM15.1668 24.9167C14.5922 24.9167 14.0411 25.1449 13.6348 25.5513C13.2284 25.9576 13.0002 26.5087 13.0002 27.0833V29.25C13.0002 29.8246 13.2284 30.3757 13.6348 30.7821C14.0411 31.1884 14.5922 31.4167 15.1668 31.4167H17.3335C17.9081 31.4167 18.4592 31.1884 18.8656 30.7821C19.2719 30.3757 19.5002 29.8246 19.5002 29.25V27.0833C19.5002 26.5087 19.2719 25.9576 18.8656 25.5513C18.4592 25.1449 17.9081 24.9167 17.3335 24.9167H15.1668Z" fill="#80542B"/>
<path fill-rule="evenodd" clip-rule="evenodd" d="M2.16667 6.5C2.16667 6.21268 2.2808 5.93713 2.48397 5.73397C2.68713 5.5308 2.96268 5.41667 3.25 5.41667H8.66667V3.25H3.25C2.38805 3.25 1.5614 3.59241 0.951903 4.2019C0.34241 4.8114 0 5.63805 0 6.5V32.5C0 33.362 0.34241 34.1886 0.951903 34.7981C1.5614 35.4076 2.38805 35.75 3.25 35.75H25.1929C24.7309 35.0883 24.378 34.3568 24.1475 33.5833H3.25C2.96268 33.5833 2.68713 33.4692 2.48397 33.266C2.2808 33.0629 2.16667 32.7873 2.16667 32.5V6.5ZM30.3333 23.9092C31.0519 23.8064 31.7814 23.8064 32.5 23.9092V6.5C32.5 5.63805 32.1576 4.8114 31.5481 4.2019C30.9386 3.59241 30.112 3.25 29.25 3.25H26V5.41667H29.25C29.5373 5.41667 29.8129 5.5308 30.016 5.73397C30.2192 5.93713 30.3333 6.21268 30.3333 6.5V23.9092ZM10.8333 5.41667H22.2766V3.25H10.8333V5.41667Z" fill="#80542B"/>
<path fill-rule="evenodd" clip-rule="evenodd" d="M23.8335 3.25H10.8335V6.5C10.8335 6.78732 10.7194 7.06287 10.5162 7.26603C10.313 7.4692 10.0375 7.58333 9.75016 7.58333C9.46284 7.58333 9.18729 7.4692 8.98413 7.26603C8.78096 7.06287 8.66683 6.78732 8.66683 6.5V3.25H3.25016C2.67553 3.25 2.12443 3.47827 1.7181 3.8846C1.31177 4.29093 1.0835 4.84203 1.0835 5.41667V10.8333C1.0835 11.408 1.31177 11.9591 1.7181 12.3654C2.12443 12.7717 2.67553 13 3.25016 13H29.2502C29.8248 13 30.3759 12.7717 30.7822 12.3654C31.1886 11.9591 31.4168 11.408 31.4168 10.8333V5.41667C31.4168 4.84203 31.1886 4.29093 30.7822 3.8846C30.3759 3.47827 29.8248 3.25 29.2502 3.25H26.0002V6.5C26.0002 6.78732 25.886 7.06287 25.6829 7.26603C25.4797 7.4692 25.2041 7.58333 24.9168 7.58333C24.6295 7.58333 24.354 7.4692 24.1508 7.26603C23.9476 7.06287 23.8335 6.78732 23.8335 6.5V3.25Z" fill="#80542B"/>
<path fill-rule="evenodd" clip-rule="evenodd" d="M32.4998 13.0002H2.1665V10.8335H32.4998V13.0002Z" fill="#80542B"/>
<path d="M6.5 1.08333C6.5 0.796016 6.61414 0.520466 6.8173 0.317301C7.02047 0.114137 7.29602 0 7.58333 0C7.87065 0 8.1462 0.114137 8.34937 0.317301C8.55253 0.520466 8.66667 0.796016 8.66667 1.08333V5.41667C8.66667 5.70398 8.55253 5.97953 8.34937 6.1827C8.1462 6.38586 7.87065 6.5 7.58333 6.5C7.29602 6.5 7.02047 6.38586 6.8173 6.1827C6.61414 5.97953 6.5 5.70398 6.5 5.41667V1.08333ZM21.6667 1.08333C21.6667 0.796016 21.7808 0.520466 21.984 0.317301C22.1871 0.114137 22.4627 0 22.75 0C23.0373 0 23.3129 0.114137 23.516 0.317301C23.7192 0.520466 23.8333 0.796016 23.8333 1.08333V5.41667C23.8333 5.70398 23.7192 5.97953 23.516 6.1827C23.3129 6.38586 23.0373 6.5 22.75 6.5C22.4627 6.5 22.1871 6.38586 21.984 6.1827C21.7808 5.97953 21.6667 5.70398 21.6667 5.41667V1.08333Z" fill="#80542B"/>
</svg>
