<svg width="40" height="40" viewBox="0 0 40 40" fill="none" xmlns="http://www.w3.org/2000/svg">
<path d="M19.9997 3.33333C10.8163 3.33333 3.33301 10.8167 3.33301 20C3.33301 29.1833 10.8163 36.6667 19.9997 36.6667C29.183 36.6667 36.6663 29.1833 36.6663 20C36.6663 10.8167 29.183 3.33333 19.9997 3.33333ZM27.9663 16.1667L18.5163 25.6167C18.283 25.85 17.9663 25.9833 17.633 25.9833C17.2997 25.9833 16.983 25.85 16.7497 25.6167L12.033 20.9C11.5497 20.4167 11.5497 19.6167 12.033 19.1333C12.5163 18.65 13.3163 18.65 13.7997 19.1333L17.633 22.9667L26.1997 14.4C26.683 13.9167 27.483 13.9167 27.9663 14.4C28.4497 14.8833 28.4497 15.6667 27.9663 16.1667Z" fill="#23A26D"/>
</svg>
