<svg width="54" height="16" viewBox="0 0 54 16" fill="none" xmlns="http://www.w3.org/2000/svg">
<path d="M20.5433 6.8572C20.4035 8.12704 19.565 8.12704 18.7964 8.12704H18.3772L18.7265 5.67201C18.7265 5.5027 18.8663 5.41804 19.006 5.41804H19.2157C19.7747 5.41804 20.2638 5.41804 20.5433 5.75667C20.5433 6.09529 20.5433 6.43392 20.5433 6.8572ZM20.1939 3.47095H17.1893C16.9797 3.47095 16.8399 3.64027 16.7701 3.89423L15.5822 13.2064C15.5822 13.3757 15.6521 13.545 15.8617 13.545H17.2592C17.4688 13.545 17.6086 13.3757 17.6784 13.1218L18.0278 10.5821C18.0278 10.3281 18.2374 10.1588 18.4471 10.1588H19.4253C21.3818 10.1588 22.4998 8.9736 22.8491 6.68789C22.9889 5.67201 22.8491 4.91011 22.4998 4.31751C21.9408 3.80958 21.1722 3.47095 20.1939 3.47095Z" fill="#263577"/>
<path d="M27.1113 10.2435C26.9716 11.2594 26.3427 11.9366 25.5042 11.9366C25.085 11.9366 24.7356 11.7673 24.526 11.4287C24.3164 11.09 24.2465 10.6668 24.3164 10.2435C24.4561 9.22761 25.085 8.55036 25.9235 8.55036C26.3427 8.55036 26.6921 8.71967 26.9017 9.0583C27.0415 9.31227 27.1812 9.73555 27.1113 10.2435ZM29.0678 6.85724H27.6703C27.5306 6.85724 27.4607 6.94189 27.3908 7.11121L27.321 7.61915L27.2511 7.44983C26.9716 6.9419 26.2729 6.68793 25.5741 6.68793C23.967 6.68793 22.6394 8.12708 22.3599 10.1588C22.2201 11.1747 22.4297 12.1059 22.9189 12.7832C23.3381 13.3758 23.967 13.6297 24.7356 13.6297C25.9933 13.6297 26.6921 12.6139 26.6921 12.6139L26.6222 13.1218C26.6222 13.2911 26.6921 13.4604 26.9017 13.4604H28.1595C28.3691 13.4604 28.5088 13.2911 28.5787 13.0371L29.3473 7.11121C29.3473 7.02655 29.2775 6.85724 29.0678 6.85724Z" fill="#263577"/>
<path d="M36.684 6.85714H35.2167C35.0769 6.85714 34.9372 6.94179 34.8673 7.11111L32.9108 10.6667L32.0723 7.28042C32.0024 7.02645 31.8627 6.94179 31.6531 6.94179H30.2556C30.1158 6.94179 29.9761 7.11111 30.046 7.36507L31.6531 12.9524L30.1857 15.4921C30.0459 15.6614 30.1857 16 30.3953 16H31.8627C32.0024 16 32.1422 15.9153 32.2121 15.746L36.9635 7.36507C37.0334 7.11111 36.8937 6.85714 36.684 6.85714Z" fill="#263577"/>
<path d="M41.7846 6.8572C41.6448 8.12704 40.8064 8.12704 40.0377 8.12704H39.6185L39.9679 5.67201C39.9679 5.5027 40.1076 5.41804 40.2474 5.41804H40.457C41.016 5.41804 41.5051 5.41804 41.7846 5.75667C41.8545 6.09529 41.8545 6.43392 41.7846 6.8572ZM41.4352 3.47095H38.4306C38.221 3.47095 38.0813 3.64027 38.0114 3.89423L36.8235 13.2064C36.8235 13.3757 36.8934 13.545 37.103 13.545H38.6402C38.78 13.545 38.9197 13.4604 38.9197 13.2064L39.2691 10.5821C39.2691 10.3281 39.4787 10.1588 39.6884 10.1588H40.6666C42.6231 10.1588 43.7411 8.9736 44.0905 6.68789C44.2302 5.67201 44.0905 4.91011 43.7411 4.31751C43.252 3.80958 42.4833 3.47095 41.4352 3.47095Z" fill="#2199D6"/>
<path d="M48.4229 10.2435C48.2832 11.2594 47.6543 11.9366 46.8158 11.9366C46.3966 11.9366 46.0472 11.7673 45.8376 11.4287C45.628 11.09 45.5581 10.6668 45.628 10.2435C45.7677 9.22761 46.3966 8.55036 47.2351 8.55036C47.6543 8.55036 48.0037 8.71967 48.2133 9.0583C48.3531 9.31227 48.4928 9.73555 48.4229 10.2435ZM50.3794 6.85724H48.9819C48.8422 6.85724 48.7723 6.94189 48.7024 7.11121L48.6326 7.61915L48.5627 7.44983C48.2832 6.9419 47.5845 6.68793 46.8857 6.68793C45.2786 6.68793 43.951 8.12708 43.6715 10.1588C43.5317 11.1747 43.7413 12.1059 44.2305 12.7832C44.6497 13.3758 45.2786 13.6297 46.0472 13.6297C47.3049 13.6297 48.0037 12.6139 48.0037 12.6139L47.9338 13.1218C47.9338 13.2911 48.0037 13.4604 48.2133 13.4604H49.4711C49.6807 13.4604 49.8204 13.2911 49.8903 13.0371L50.6589 7.11121C50.6589 7.02655 50.5192 6.85724 50.3794 6.85724Z" fill="#2199D6"/>
<path d="M52.0565 3.72492L50.7987 13.2064C50.7987 13.3757 50.8686 13.545 51.0782 13.545H52.336C52.5456 13.545 52.6853 13.3757 52.7552 13.1218L53.9431 3.80958C53.9431 3.64027 53.8732 3.47095 53.6636 3.47095H52.2661C52.1962 3.47095 52.1263 3.64026 52.0565 3.72492Z" fill="#2199D6"/>
<path d="M3.14394 15.3228L3.35355 13.545H2.86443H0.418829L2.09582 0.592645C2.09582 0.592645 2.09581 0.50799 2.16569 0.50799H2.23557H6.35815C7.68577 0.50799 8.66401 0.846615 9.15313 1.52386C9.36275 1.86249 9.50251 2.20111 9.57238 2.53974C9.64226 2.96302 9.64226 3.3863 9.57238 3.97889V4.31752L9.78201 4.48683C9.99163 4.57149 10.1314 4.7408 10.2711 4.91011C10.4807 5.16408 10.6205 5.5027 10.6205 5.92598C10.6904 6.34926 10.6904 6.8572 10.5506 7.44979C10.4109 8.12704 10.2711 8.63498 10.0615 9.14291C9.85188 9.56619 9.57238 9.90482 9.29288 10.2434C9.01338 10.4974 8.59413 10.6667 8.24476 10.836C7.82551 10.9207 7.40627 11.0054 6.91715 11.0054H6.56778C6.35816 11.0054 6.14854 11.09 5.93891 11.2593C5.79917 11.4286 5.65942 11.6826 5.58954 11.9366V12.1059L5.17029 15.2382V15.3228V15.4075C5.17029 15.4075 5.17029 15.4075 5.10041 15.4075H3.14394V15.3228Z" fill="#263577"/>
<path d="M10.0617 3.97882C10.0617 4.06348 10.0617 4.14813 9.99178 4.23279C9.43279 7.61904 7.61606 8.71956 5.24033 8.71956H4.05245C3.77296 8.71956 3.49347 8.97353 3.49347 9.31216L2.86459 14.0529L2.72485 15.4074C2.72485 15.6614 2.86459 15.8307 3.00434 15.8307H5.17045C5.44995 15.8307 5.65957 15.5767 5.65957 15.3227V15.1534L6.07882 12.1058V11.9365C6.14869 11.5979 6.35832 11.4286 6.56794 11.4286H6.91731C9.01354 11.4286 10.6207 10.4127 11.0399 7.44972C11.2495 6.17988 11.1098 5.16401 10.6207 4.48676C10.4809 4.31745 10.2713 4.14813 10.0617 3.97882Z" fill="#2199D6"/>
<path d="M9.50287 3.72492C9.433 3.72492 9.36313 3.64027 9.22338 3.64027C9.15351 3.64027 9.01375 3.55561 8.94388 3.55561C8.5945 3.47095 8.24513 3.47095 7.89576 3.47095H4.68154C4.61167 3.47095 4.54179 3.47095 4.47192 3.55561C4.33217 3.64026 4.19243 3.80958 4.19243 3.97889L3.49368 9.22757V9.39688C3.56356 9.05826 3.77317 8.80429 4.05267 8.80429H5.24054C7.61627 8.80429 9.433 7.6191 9.99199 4.31751C9.99199 4.23286 9.992 4.1482 10.0619 4.06355C9.92212 3.97889 9.78237 3.89423 9.64262 3.80958C9.57275 3.72492 9.50287 3.72492 9.50287 3.72492Z" fill="#252C5E"/>
<path d="M4.19247 3.97884C4.19247 3.80952 4.33221 3.64021 4.47196 3.55556C4.54183 3.55556 4.61171 3.4709 4.68158 3.4709H7.8958C8.24517 3.4709 8.66442 3.4709 8.94392 3.55556C9.01379 3.55556 9.15355 3.55556 9.22342 3.64021C9.2933 3.64021 9.36317 3.72487 9.50292 3.72487C9.57279 3.72487 9.57279 3.72487 9.64266 3.80953C9.78241 3.89418 9.92216 3.97884 10.0619 4.06349C10.2017 2.79365 10.0619 1.94709 9.50292 1.18518C8.87405 0.338623 7.75605 0 6.35857 0H2.23598C1.95648 0 1.67698 0.253966 1.67698 0.59259L0 13.6296C0 13.8836 0.139749 14.1376 0.349372 14.1376H2.86484L3.49372 9.22752L4.19247 3.97884Z" fill="#263577"/>
</svg>
