<svg width="177" height="172" viewBox="0 0 177 172" fill="none" xmlns="http://www.w3.org/2000/svg">
<path d="M100.97 2.42975C92.9727 -0.809918 84.0273 -0.809918 76.0303 2.42975L56.6489 10.2822L141.538 43.266L171.398 31.7438C170.174 30.7288 168.801 29.9085 167.327 29.312L100.97 2.42975ZM177 43.7966L95.1375 75.4009V171.991C97.1199 171.593 99.0669 171.001 100.97 170.231L167.327 143.349C170.185 142.192 172.633 140.209 174.356 137.654C176.079 135.099 177 132.087 177 129.006V43.8054V43.7966ZM81.8625 171.991V75.4009L0 43.7966V129.015C0.00174361 132.095 0.923181 135.104 2.64639 137.658C4.3696 140.211 6.81619 142.193 9.67305 143.349L76.0303 170.231C77.9331 171.001 79.8801 171.584 81.8625 172V171.991ZM5.60205 31.7438L88.5 63.746L123.165 50.3579L38.7099 17.551L9.67305 29.312C8.16855 29.9221 6.80565 30.7445 5.60205 31.7438Z" fill="#80542B" fill-opacity="0.48"/>
</svg>
