<svg width="32" height="25" viewBox="0 0 32 25" fill="none" xmlns="http://www.w3.org/2000/svg">
<path d="M9.6 12.5C12.695 12.5 15.2 10.0537 15.2 7.03125C15.2 4.00879 12.695 1.5625 9.6 1.5625C6.505 1.5625 4 4.00879 4 7.03125C4 10.0537 6.505 12.5 9.6 12.5ZM13.44 14.0625H13.025C11.985 14.5508 10.83 14.8438 9.6 14.8438C8.37 14.8438 7.22 14.5508 6.175 14.0625H5.76C2.58 14.0625 0 16.582 0 19.6875V21.0938C0 22.3877 1.075 23.4375 2.4 23.4375H16.8C18.125 23.4375 19.2 22.3877 19.2 21.0938V19.6875C19.2 16.582 16.62 14.0625 13.44 14.0625ZM24 12.5C26.65 12.5 28.8 10.4004 28.8 7.8125C28.8 5.22461 26.65 3.125 24 3.125C21.35 3.125 19.2 5.22461 19.2 7.8125C19.2 10.4004 21.35 12.5 24 12.5ZM26.4 14.0625H26.21C25.515 14.2969 24.78 14.4531 24 14.4531C23.22 14.4531 22.485 14.2969 21.79 14.0625H21.6C20.58 14.0625 19.64 14.3506 18.815 14.8145C20.035 16.0986 20.8 17.8027 20.8 19.6875V21.5625C20.8 21.6699 20.775 21.7725 20.77 21.875H29.6C30.925 21.875 32 20.8252 32 19.5312C32 16.5088 29.495 14.0625 26.4 14.0625Z" fill="#80542B"/>
</svg>
