<svg width="26" height="26" viewBox="0 0 26 26" fill="none" xmlns="http://www.w3.org/2000/svg">
<path d="M13.0002 6.19531C17.4735 6.19531 21.0998 9.8216 21.0998 14.2949V20.2109C21.0998 20.4264 21.0142 20.6331 20.8618 20.7855C20.7095 20.9378 20.5028 21.0234 20.2873 21.0234H5.7131C5.49761 21.0234 5.29095 20.9378 5.13858 20.7855C4.9862 20.6331 4.9006 20.4264 4.9006 20.2109V14.2949C4.9006 9.8216 8.52689 6.19531 13.0002 6.19531ZM12.2893 1.72656H13.7111C13.765 1.72656 13.8167 1.74796 13.8548 1.78606C13.8929 1.82415 13.9143 1.87582 13.9143 1.92969V4.36719C13.9143 4.42106 13.8929 4.47273 13.8548 4.51082C13.8167 4.54891 13.765 4.57031 13.7111 4.57031H12.2893C12.2354 4.57031 12.1837 4.54891 12.1456 4.51082C12.1075 4.47273 12.0861 4.42106 12.0861 4.36719V1.92969C12.0861 1.87582 12.1075 1.82415 12.1456 1.78606C12.1837 1.74796 12.2354 1.72656 12.2893 1.72656ZM4.5007 4.86637C4.51956 4.84748 4.54196 4.8325 4.56662 4.82228C4.59128 4.81205 4.61771 4.80679 4.64441 4.80679C4.6711 4.80679 4.69753 4.81205 4.72219 4.82228C4.74685 4.8325 4.76925 4.84748 4.78812 4.86637L6.51163 6.58988C6.5497 6.62797 6.57108 6.67962 6.57108 6.73347C6.57108 6.78732 6.5497 6.83896 6.51163 6.87705L5.50617 7.88252C5.46808 7.92058 5.41643 7.94197 5.36258 7.94197C5.30873 7.94197 5.25709 7.92058 5.219 7.88252L3.49548 6.159C3.45742 6.12091 3.43604 6.06927 3.43604 6.01542C3.43604 5.96157 3.45742 5.90993 3.49548 5.87184L4.50095 4.86637H4.5007ZM21.5023 4.86637L22.5077 5.87184C22.5457 5.90991 22.567 5.96151 22.567 6.01529C22.567 6.06908 22.5457 6.12067 22.5077 6.15875L20.7842 7.88277C20.7653 7.90166 20.7429 7.91664 20.7183 7.92686C20.6936 7.93709 20.6672 7.94235 20.6405 7.94235C20.6138 7.94235 20.5874 7.93709 20.5627 7.92686C20.5381 7.91664 20.5157 7.90166 20.4968 7.88277L19.4913 6.8773C19.4724 6.85844 19.4575 6.83604 19.4472 6.81138C19.437 6.78672 19.4317 6.76029 19.4317 6.73359C19.4317 6.7069 19.437 6.68047 19.4472 6.65581C19.4575 6.63115 19.4724 6.60875 19.4913 6.58988L21.2151 4.86637C21.2532 4.8283 21.3048 4.80692 21.3587 4.80692C21.4125 4.80692 21.4642 4.8283 21.5023 4.86637ZM4.87521 22.6484H21.1252C21.3407 22.6484 21.5474 22.734 21.6997 22.8864C21.8521 23.0388 21.9377 23.2454 21.9377 23.4609V24.0703C21.9377 24.1242 21.9163 24.1758 21.8782 24.2139C21.8401 24.252 21.7885 24.2734 21.7346 24.2734H4.26583C4.21196 24.2734 4.1603 24.252 4.1222 24.2139C4.08411 24.1758 4.06271 24.1242 4.06271 24.0703V23.4609C4.06271 23.2454 4.14831 23.0388 4.30068 22.8864C4.45306 22.734 4.65972 22.6484 4.87521 22.6484ZM8.63302 14.5996V21.0234H10.258V14.5996H8.63302Z" fill="#80542B"/>
</svg>
