<svg width="39" height="39" viewBox="0 0 39 39" fill="none" xmlns="http://www.w3.org/2000/svg">
<path d="M22.4484 9.21212L29.7671 16.5263L16.5239 29.77L9.21012 22.451L22.4484 9.21212ZM17.5639 31.8711L31.8633 17.5711C32.0022 17.4359 32.1126 17.2742 32.188 17.0957C32.2634 16.9171 32.3024 16.7253 32.3025 16.5315C32.3027 16.3376 32.264 16.1457 32.1889 15.9671C32.1137 15.7884 32.0036 15.6266 31.8649 15.4911L23.4868 7.11262C23.2066 6.84506 22.8339 6.69589 22.4465 6.69619C22.059 6.6965 21.6867 6.84624 21.4069 7.11425L7.10745 21.4143C6.96859 21.5495 6.8582 21.7111 6.78277 21.8897C6.70734 22.0682 6.6684 22.2601 6.66825 22.4539C6.6681 22.6477 6.70673 22.8396 6.78189 23.0183C6.85704 23.197 6.96718 23.3588 7.10583 23.4943L15.484 31.8728C15.7642 32.1403 16.1368 32.2895 16.5243 32.2892C16.9117 32.2889 17.2841 32.1391 17.5639 31.8711ZM38.1404 17.1275L17.1495 38.1436C16.6101 38.6734 15.8707 39 15.055 39C14.2393 39 13.4999 38.6734 12.9605 38.1436L10.0453 35.23C10.8593 34.3907 11.3105 33.2649 11.3015 32.0958C11.2925 30.9266 10.824 29.8079 9.99717 28.9813C9.17036 28.1547 8.05159 27.6864 6.88248 27.6777C5.71338 27.669 4.58776 28.1205 3.74872 28.9347L3.75034 28.9331L0.856339 26.0179C0.326611 25.4784 0 24.739 0 23.9233C0 23.1075 0.326611 22.3681 0.856339 21.8286L21.8488 0.856375C22.3883 0.326625 23.1277 0 23.9434 0C24.7591 0 25.4984 0.326625 26.0379 0.856375L28.9319 3.7505C28.5035 4.16044 28.1612 4.65184 27.9253 5.19585C27.6893 5.73987 27.5644 6.32554 27.5578 6.91849C27.5513 7.51144 27.6632 8.09972 27.8871 8.64882C28.111 9.19791 28.4423 9.69675 28.8616 10.1161C29.2809 10.5354 29.7797 10.8667 30.3288 11.0906C30.8779 11.3145 31.4661 11.4264 32.059 11.4199C32.652 11.4133 33.2376 11.2884 33.7816 11.0524C34.3256 10.8165 34.817 10.4742 35.2269 10.0458L35.2285 10.0441L38.1437 12.9382C38.6734 13.4777 39 14.2171 39 15.0329C39 15.8486 38.6734 16.588 38.1437 17.1275H38.1404Z" fill="#80542B"/>
</svg>
