<svg width="46" height="12" viewBox="0 0 46 12" fill="none" xmlns="http://www.w3.org/2000/svg">
<path d="M28.963 6C28.963 9.31371 26.2933 12 23.0001 12C19.7068 12 17.0371 9.31371 17.0371 6C17.0371 2.68629 19.7068 0 23.0001 0C26.2933 0 28.963 2.68629 28.963 6Z" fill="white"/>
<path d="M11.9259 6C11.9259 9.31371 9.25622 12 5.96296 12C2.66971 12 0 9.31371 0 6C0 2.68629 2.66971 0 5.96296 0C9.25622 0 11.9259 2.68629 11.9259 6Z" fill="black" fill-opacity="0.22"/>
<path d="M46.0001 6C46.0001 9.31371 43.3304 12 40.0372 12C36.7439 12 34.0742 9.31371 34.0742 6C34.0742 2.68629 36.7439 0 40.0372 0C43.3304 0 46.0001 2.68629 46.0001 6Z" fill="black" fill-opacity="0.22"/>
</svg>
