<svg width="71" height="71" viewBox="0 0 71 71" fill="none" xmlns="http://www.w3.org/2000/svg">
<path d="M61.5944 57.1833L60.7838 58.1585C60.7641 58.1794 60.744 58.2005 60.7235 58.222C60.6362 58.3137 60.5418 58.4128 60.4327 58.5301L60.4278 58.5355C59.7426 59.2794 59.0445 59.9842 58.3181 60.6459C58.1704 60.779 58.0274 60.9008 57.8679 61.0366C57.7952 61.0986 57.719 61.1635 57.6373 61.2337L57.6358 61.235C56.9294 61.8443 56.204 62.4227 55.4595 62.9687L54.9178 63.3499C49.2327 67.3506 42.4506 69.4977 35.4989 69.4977C28.5472 69.4977 21.7651 67.3506 16.0799 63.3499L15.5014 62.9427C14.7714 62.4083 14.0601 61.8371 13.3619 61.235L13.3605 61.2337C13.2711 61.1568 13.1901 61.0882 13.1142 61.0238C12.9598 60.8929 12.826 60.7795 12.6838 60.6496L12.6803 60.6464C11.9555 59.9888 11.2574 59.2818 10.57 58.5354L10.5651 58.5301C10.4522 58.4087 10.3565 58.3086 10.2692 58.2174C10.2599 58.2076 10.2507 58.198 10.2415 58.1884L9.39382 57.178C4.29819 51.1042 1.50434 43.4299 1.5025 35.5017L1.5025 35.5007C1.49772 30.0454 2.80693 24.6692 5.31938 19.8268C7.83182 14.9845 11.4736 10.8185 15.9366 7.68131C20.3996 4.5441 25.5526 2.52795 30.9596 1.80341C36.3666 1.07888 41.8685 1.66729 47 3.51885C52.1315 5.37041 56.7416 8.43066 60.4403 12.4407C64.1389 16.4508 66.8173 21.2927 68.249 26.5568C69.6806 31.8209 69.8233 37.3524 68.665 42.6834C67.5067 48.0143 65.0814 52.9879 61.5944 57.1833ZM13.7281 58.1238L13.7191 58.8042L14.2247 59.2598C20.0613 64.5194 27.6395 67.4302 35.4964 67.4302C43.3532 67.4302 50.9314 64.5194 56.768 59.2598L57.2736 58.8042L57.2646 58.1238C57.2154 54.3998 55.702 50.8449 53.0518 48.2281C50.4017 45.6114 46.8278 44.1433 43.1035 44.1414H43.1027H27.89H27.8892C24.1649 44.1433 20.591 45.6114 17.9409 48.2281C15.2907 50.8449 13.7773 54.3998 13.7281 58.1238ZM42.6699 15.892C40.5465 14.4732 38.0501 13.7159 35.4964 13.7159C32.0719 13.7159 28.7876 15.0763 26.3662 17.4978C23.9447 19.9193 22.5843 23.2035 22.5843 26.628C22.5843 29.1817 23.3416 31.6781 24.7604 33.8015C26.1792 35.9249 28.1958 37.5798 30.5551 38.5571C32.9145 39.5344 35.5107 39.7901 38.0154 39.2919C40.5201 38.7937 42.8208 37.5639 44.6265 35.7582C46.4323 33.9524 47.6621 31.6517 48.1603 29.147C48.6585 26.6423 48.4028 24.0461 47.4255 21.6868C46.4482 19.3274 44.7933 17.3108 42.6699 15.892Z" fill="white" stroke="white" stroke-width="3"/>
</svg>
