<svg width="23" height="23" viewBox="0 0 23 23" fill="none" xmlns="http://www.w3.org/2000/svg">
<path d="M8.97392 22.9929C8.94964 22.9517 8.92018 22.9138 8.88627 22.8801L8.86411 22.8589L8.86512 22.8599C8.71494 22.7123 8.51614 22.6245 8.30589 22.6128C8.09564 22.6011 7.88833 22.6664 7.72273 22.7964L7.71971 22.7995L6.73044 21.8102C6.86173 21.6447 6.92804 21.437 6.91691 21.2261C6.90578 21.0151 6.81797 20.8155 6.66999 20.6648C6.51981 20.5172 6.32101 20.4293 6.11077 20.4177C5.90052 20.406 5.69321 20.4713 5.5276 20.6013L5.52458 20.6043L4.53531 19.6151C4.6666 19.4496 4.73292 19.2419 4.72179 19.0309C4.71065 18.82 4.62285 18.6204 4.47487 18.4697C4.32469 18.3221 4.12589 18.2342 3.91564 18.2225C3.70539 18.2108 3.49809 18.2761 3.33248 18.4062L3.32946 18.4092L2.34019 17.42C2.47148 17.2545 2.53779 17.0467 2.52666 16.8358C2.51553 16.6249 2.42772 16.4253 2.27975 16.2745C2.12956 16.1269 1.93077 16.0391 1.72052 16.0274C1.51027 16.0157 1.30296 16.081 1.13735 16.2111L1.13433 16.2141L0.145066 15.2248C0.276354 15.0594 0.342668 14.8516 0.331537 14.6407C0.320406 14.4298 0.232597 14.2302 0.0846216 14.0794C0.060444 14.0552 0.025185 14.0432 0 14.019L14.019 0C14.029 0.0241776 14.0452 0.0493626 14.0663 0.070518L14.0814 0.0846216L14.0804 0.0836142L14.0865 0.0896586C14.1649 0.168184 14.258 0.230481 14.3605 0.272985C14.463 0.31549 14.5729 0.337367 14.6839 0.337367C14.7948 0.337367 14.9047 0.31549 15.0072 0.272985C15.1097 0.230481 15.2028 0.168184 15.2812 0.0896586L15.2873 0.0836142C15.3115 0.0594366 15.3115 0.035259 15.3356 0.0110814L16.3259 1.00136C16.3022 1.0086 16.2807 1.02178 16.2635 1.03964L16.2534 1.05072C16.1701 1.14097 16.1062 1.24742 16.0658 1.36342C16.0254 1.47943 16.0094 1.60251 16.0186 1.725C16.0279 1.84748 16.0623 1.96675 16.1197 2.07536C16.177 2.18398 16.2562 2.27961 16.3521 2.35631L16.3491 2.35329L16.3551 2.35933C16.4335 2.43786 16.5267 2.50015 16.6292 2.54266C16.7317 2.58516 16.8416 2.60704 16.9525 2.60704C17.0635 2.60704 17.1734 2.58516 17.2759 2.54266C17.3784 2.50015 17.4715 2.43786 17.5499 2.35933L17.556 2.35329C17.5801 2.32911 17.5801 2.30493 17.6043 2.28075L18.5936 3.27002C18.5698 3.27727 18.5483 3.29044 18.5311 3.3083L18.521 3.31938C18.361 3.47942 18.2711 3.69648 18.2711 3.92282C18.2711 4.14915 18.361 4.36621 18.521 4.52625C18.6811 4.68629 18.8981 4.7762 19.1245 4.7762C19.3508 4.7762 19.5679 4.68629 19.7279 4.52625C19.7521 4.50207 19.7521 4.47789 19.7763 4.45371L20.7655 5.44298C20.7413 5.45036 20.7195 5.4639 20.7021 5.48227L20.693 5.49234C20.6138 5.57159 20.5509 5.66566 20.508 5.7692C20.4651 5.87274 20.4431 5.98371 20.4431 6.09578C20.4431 6.20784 20.4651 6.31881 20.508 6.42235C20.5509 6.52589 20.6138 6.61996 20.693 6.69921C20.7722 6.77845 20.8663 6.84131 20.9699 6.8842C21.0734 6.92709 21.1844 6.94916 21.2964 6.94916C21.4085 6.94916 21.5195 6.92709 21.623 6.8842C21.7265 6.84131 21.8206 6.77845 21.8999 6.69921C21.924 6.67503 21.924 6.65085 21.9482 6.62668L22.9375 7.61594C22.9138 7.62319 22.8923 7.63636 22.875 7.65422L22.865 7.66531L22.8589 7.67135C22.7804 7.74976 22.7181 7.84288 22.6756 7.94538C22.6331 8.04789 22.6112 8.15777 22.6112 8.26874C22.6112 8.37971 22.6331 8.48959 22.6756 8.59209C22.7181 8.6946 22.7804 8.78772 22.8589 8.86613L22.8639 8.87116L22.8831 8.89131C22.918 8.9264 22.9573 8.95687 22.9999 8.98198L22.9969 8.97996L8.97392 22.9929ZM18.3024 12.0233L18.4233 12.1442C18.4718 12.1895 18.536 12.2142 18.6023 12.213C18.6687 12.2119 18.732 12.185 18.7789 12.1381C18.8258 12.0912 18.8527 12.0279 18.8538 11.9616C18.8549 11.8952 18.8303 11.831 18.785 11.7825L18.6621 11.6596C18.6136 11.6144 18.5494 11.5897 18.4831 11.5908C18.4167 11.592 18.3534 11.6188 18.3065 11.6657C18.2596 11.7126 18.2327 11.7759 18.2316 11.8423C18.2305 11.9086 18.2551 11.9728 18.3004 12.0213L18.3024 12.0233ZM18.2904 7.23414L20.4139 9.35774C20.4624 9.40302 20.5266 9.4277 20.593 9.42656C20.6593 9.42543 20.7226 9.39857 20.7695 9.35165C20.8164 9.30474 20.8433 9.24143 20.8444 9.1751C20.8456 9.10876 20.8209 9.04457 20.7756 8.99608L18.652 6.87248C18.6035 6.8272 18.5393 6.80252 18.473 6.80366C18.4067 6.80479 18.3433 6.83165 18.2964 6.87856C18.2495 6.92548 18.2227 6.98878 18.2215 7.05512C18.2204 7.12146 18.2451 7.18565 18.2904 7.23414ZM12.798 3.31535L19.6262 10.1435C19.6747 10.1888 19.7388 10.2135 19.8052 10.2123C19.8715 10.2112 19.9348 10.1843 19.9817 10.1374C20.0287 10.0905 20.0555 10.0272 20.0566 9.96087C20.0578 9.89453 20.0331 9.83035 19.9878 9.78185L13.1597 2.9537C13.1112 2.90841 13.047 2.88374 12.9806 2.88487C12.9143 2.88601 12.851 2.91287 12.8041 2.95978C12.7572 3.00669 12.7303 3.07 12.7292 3.13634C12.728 3.20267 12.7527 3.26686 12.798 3.31535ZM14.9579 13.9203H15.248C15.3167 13.9147 15.3812 13.8849 15.4299 13.8362C15.4786 13.7875 15.5084 13.723 15.514 13.6543V13.6553C15.5116 13.6218 15.5025 13.589 15.4871 13.5591C15.4717 13.5292 15.4505 13.5027 15.4246 13.4812C15.3987 13.4597 15.3687 13.4438 15.3364 13.4342C15.3042 13.4246 15.2703 13.4217 15.2369 13.4256H13.0891C13.0558 13.4251 13.0227 13.4312 12.9917 13.4438C12.9608 13.4563 12.9327 13.4749 12.9091 13.4985C12.8855 13.5221 12.8669 13.5501 12.8544 13.5811C12.8419 13.612 12.8357 13.6451 12.8363 13.6785C12.8327 13.7198 12.8411 13.7614 12.8606 13.798C12.8801 13.8347 12.9098 13.8649 12.9461 13.885L12.9451 13.884L10.4236 16.4055C10.4027 16.3702 10.3724 16.3414 10.3361 16.3224C10.2998 16.3034 10.2589 16.2948 10.2181 16.2977C10.1846 16.2969 10.1513 16.3029 10.1202 16.3153C10.0891 16.3277 10.0608 16.3462 10.0371 16.3699C10.0133 16.3935 9.99466 16.4217 9.98213 16.4528C9.9696 16.4838 9.9635 16.5171 9.96419 16.5506L9.96318 18.6973C9.96264 18.7307 9.96881 18.7638 9.98132 18.7947C9.99384 18.8257 10.0124 18.8538 10.036 18.8774C10.0596 18.9009 10.0877 18.9195 10.1186 18.9321C10.1496 18.9446 10.1827 18.9507 10.216 18.9502C10.2847 18.9447 10.3492 18.9149 10.3979 18.8662C10.4467 18.8174 10.4765 18.7529 10.482 18.6842V18.6853V18.3951L14.9579 13.9203ZM17.4552 11.1811L17.5761 11.302C17.6246 11.3473 17.6888 11.372 17.7551 11.3708C17.8215 11.3697 17.8848 11.3429 17.9317 11.2959C17.9786 11.249 18.0054 11.1857 18.0066 11.1194C18.0077 11.053 17.983 10.9889 17.9378 10.9404L17.8169 10.8195C17.7684 10.7742 17.7042 10.7495 17.6379 10.7506C17.5715 10.7518 17.5082 10.7786 17.4613 10.8256C17.4144 10.8725 17.3875 10.9358 17.3864 11.0021C17.3853 11.0685 17.4099 11.1326 17.4552 11.1811ZM16.611 10.3369L16.7319 10.4578C16.7804 10.5031 16.8446 10.5278 16.9109 10.5266C16.9773 10.5255 17.0406 10.4986 17.0875 10.4517C17.1344 10.4048 17.1612 10.3415 17.1624 10.2752C17.1635 10.2088 17.1388 10.1447 17.0936 10.0962L16.9727 9.97527C16.9242 9.92999 16.86 9.90531 16.7937 9.90645C16.7273 9.90758 16.664 9.93444 16.6171 9.98136C16.5702 10.0283 16.5433 10.0916 16.5422 10.1579C16.5411 10.2243 16.5657 10.2884 16.611 10.3369ZM15.7668 9.49273L15.8877 9.61362C15.9362 9.6589 16.0004 9.68358 16.0667 9.68244C16.1331 9.68131 16.1964 9.65445 16.2433 9.60753C16.2902 9.56062 16.317 9.49731 16.3182 9.43098C16.3193 9.36464 16.2946 9.30045 16.2494 9.25196L16.1275 9.13006C16.079 9.08478 16.0148 9.06011 15.9484 9.06124C15.8821 9.06237 15.8188 9.08923 15.7719 9.13615C15.725 9.18306 15.6981 9.24637 15.697 9.3127C15.6958 9.37904 15.7205 9.44323 15.7658 9.49172L15.7668 9.49273ZM5.76535 11.2416L5.80162 11.2778C5.56 11.6071 5.44415 12.0119 5.475 12.4191C5.50586 12.8263 5.68139 13.2091 5.96985 13.4982L8.42186 15.9502C8.61078 16.139 8.86697 16.2451 9.13409 16.2451C9.40122 16.2451 9.65741 16.139 9.84633 15.9502L12.3799 13.4166C12.5688 13.2276 12.6749 12.9714 12.6749 12.7043C12.6749 12.4372 12.5688 12.181 12.3799 11.9921L9.92792 9.54008C9.64013 9.25235 9.25913 9.07673 8.85344 9.04478C8.44774 9.01284 8.04395 9.12666 7.71467 9.3658L7.70661 9.37184L7.67034 9.33557C7.62162 9.28908 7.55686 9.26314 7.48951 9.26314C7.42217 9.26314 7.35741 9.28908 7.30869 9.33557L5.76535 10.8789C5.71885 10.9276 5.69291 10.9924 5.69291 11.0597C5.69291 11.1271 5.71885 11.1929 5.76535 11.2416ZM14.9196 8.65155L15.0405 8.77244C15.089 8.81772 15.1532 8.8424 15.2195 8.84126C15.2858 8.84013 15.3491 8.81327 15.3961 8.76635C15.443 8.71944 15.4698 8.65614 15.471 8.5898C15.4721 8.52346 15.4474 8.45927 15.4021 8.41078L15.2802 8.28889C15.2317 8.2436 15.1676 8.21893 15.1012 8.22006C15.0349 8.2212 14.9716 8.24805 14.9247 8.29497C14.8778 8.34188 14.8509 8.40519 14.8498 8.47153C14.8486 8.53786 14.8733 8.60205 14.9186 8.65054L14.9196 8.65155ZM14.0754 7.80735L14.1953 7.92723C14.2438 7.97251 14.3079 7.99719 14.3743 7.99605C14.4406 7.99492 14.5039 7.96806 14.5508 7.92115C14.5978 7.87423 14.6246 7.81093 14.6258 7.74459C14.6269 7.67825 14.6022 7.61407 14.5569 7.56557L14.437 7.44569C14.3886 7.40041 14.3244 7.37573 14.258 7.37687C14.1917 7.378 14.1284 7.40486 14.0815 7.45178C14.0346 7.49869 14.0077 7.56199 14.0066 7.62833C14.0054 7.69467 14.0301 7.75886 14.0754 7.80735ZM13.2302 6.96214L13.3511 7.08303C13.3996 7.12831 13.4637 7.15299 13.5301 7.15185C13.5964 7.15072 13.6597 7.12386 13.7066 7.07694C13.7536 7.03003 13.7804 6.96673 13.7816 6.90039C13.7827 6.83405 13.758 6.76986 13.7127 6.72137L13.5918 6.60048C13.5433 6.5552 13.4792 6.53052 13.4128 6.53166C13.3465 6.53279 13.2832 6.55965 13.2363 6.60657C13.1893 6.65348 13.1625 6.71679 13.1614 6.78312C13.1602 6.84946 13.1849 6.91365 13.2302 6.96214ZM14.9186 3.94599L15.522 4.54942C15.5705 4.5947 15.6347 4.61938 15.701 4.61824C15.7674 4.61711 15.8307 4.59025 15.8776 4.54333C15.9245 4.49642 15.9514 4.43312 15.9525 4.36678C15.9536 4.30044 15.929 4.23625 15.8837 4.18776L15.2802 3.58433C15.2317 3.53905 15.1676 3.51437 15.1012 3.5155C15.0349 3.51664 14.9716 3.5435 14.9247 3.59041C14.8778 3.63733 14.8509 3.70063 14.8498 3.76697C14.8486 3.83331 14.8733 3.89749 14.9186 3.94599ZM12.386 6.11794L12.5069 6.23883C12.5554 6.28411 12.6195 6.30879 12.6859 6.30765C12.7522 6.30652 12.8155 6.27966 12.8624 6.23274C12.9094 6.18583 12.9362 6.12252 12.9373 6.05619C12.9385 5.98985 12.9138 5.92566 12.8685 5.87717L12.7476 5.75628C12.6991 5.711 12.635 5.68632 12.5686 5.68746C12.5023 5.68859 12.439 5.71545 12.3921 5.76237C12.3451 5.80928 12.3183 5.87258 12.3172 5.93892C12.316 6.00526 12.3407 6.06945 12.386 6.11794ZM13.6039 2.63133L14.2043 3.23174C14.2528 3.27702 14.317 3.3017 14.3834 3.30056C14.4497 3.29943 14.513 3.27257 14.5599 3.22565C14.6068 3.17874 14.6337 3.11544 14.6348 3.0491C14.636 2.98276 14.6113 2.91857 14.566 2.87008L13.9656 2.26967C13.9171 2.22439 13.8529 2.19971 13.7866 2.20085C13.7202 2.20198 13.6569 2.22884 13.61 2.27576C13.5631 2.32267 13.5362 2.38597 13.5351 2.45231C13.534 2.51865 13.5586 2.58284 13.6039 2.63133ZM11.5418 5.27273L11.6627 5.39362C11.7112 5.4389 11.7753 5.46358 11.8417 5.46244C11.908 5.46131 11.9713 5.43445 12.0182 5.38753C12.0652 5.34062 12.092 5.27732 12.0931 5.21098C12.0943 5.14464 12.0696 5.08045 12.0243 5.03196L11.9024 4.91007C11.8539 4.86478 11.7898 4.84011 11.7234 4.84124C11.6571 4.84238 11.5938 4.86924 11.5469 4.91615C11.4999 4.96306 11.4731 5.02637 11.4719 5.09271C11.4708 5.15905 11.4955 5.22323 11.5408 5.27172L11.5418 5.27273ZM10.6966 4.42853L10.8175 4.54942C10.866 4.5947 10.9301 4.61938 10.9965 4.61824C11.0628 4.61711 11.1261 4.59025 11.173 4.54333C11.2199 4.49642 11.2468 4.43312 11.2479 4.36678C11.2491 4.30044 11.2244 4.23625 11.1791 4.18776L11.0572 4.06587C11.0087 4.02058 10.9445 3.99591 10.8782 3.99704C10.8119 3.99818 10.7486 4.02503 10.7016 4.07195C10.6547 4.11886 10.6279 4.18217 10.6267 4.24851C10.6256 4.31484 10.6503 4.37903 10.6956 4.42752L10.6966 4.42853ZM10.483 17.6718L10.4709 17.0563L13.619 13.9082L14.2346 13.9203L10.483 17.6718ZM9.48064 15.5845C9.38759 15.6769 9.26174 15.7288 9.13057 15.7288C8.99939 15.7288 8.87354 15.6769 8.7805 15.5845L7.65926 14.4632L10.893 11.2295L12.0142 12.3507C12.1067 12.4438 12.1586 12.5696 12.1586 12.7008C12.1586 12.832 12.1067 12.9578 12.0142 13.0509L9.48064 15.5845ZM10.3248 13.3652C10.4346 13.475 10.5744 13.5499 10.7266 13.5802C10.8789 13.6106 11.0367 13.5951 11.1802 13.5357C11.3236 13.4764 11.4463 13.3758 11.5325 13.2467C11.6188 13.1176 11.6649 12.9659 11.6649 12.8106C11.6649 12.6553 11.6188 12.5036 11.5325 12.3745C11.4463 12.2454 11.3236 12.1448 11.1802 12.0855C11.0367 12.0261 10.8789 12.0106 10.7266 12.041C10.5744 12.0713 10.4346 12.1462 10.3248 12.256C10.1801 12.4043 10.099 12.6033 10.099 12.8106C10.099 13.0179 10.1801 13.2169 10.3248 13.3652ZM8.66062 15.0304L8.66162 15.0314C8.73424 15.1042 8.82052 15.162 8.91551 15.2015C9.0105 15.2409 9.11234 15.2612 9.21519 15.2612C9.31804 15.2612 9.41987 15.2409 9.51487 15.2015C9.60986 15.162 9.69613 15.1042 9.76876 15.0314L9.76976 15.0304C10.071 14.7221 10.071 14.2295 9.76976 13.9213C9.46855 13.613 9.76876 13.9203 9.76876 13.9203C9.69613 13.8474 9.60986 13.7896 9.51487 13.7502C9.41987 13.7108 9.31804 13.6905 9.21519 13.6905C9.11234 13.6905 9.0105 13.7108 8.91551 13.7502C8.82052 13.7896 8.73424 13.8474 8.66162 13.9203L8.66062 13.9213C8.51583 14.0695 8.43478 14.2686 8.43478 14.4758C8.43478 14.6831 8.51583 14.8821 8.66062 15.0304ZM10.6754 12.9914C10.6375 12.9531 10.6117 12.9045 10.6014 12.8516C10.5911 12.7987 10.5966 12.744 10.6174 12.6942C10.6381 12.6445 10.6731 12.602 10.7179 12.5721C10.7628 12.5422 10.8155 12.5263 10.8693 12.5263C10.9232 12.5263 10.9759 12.5422 11.0208 12.5721C11.0656 12.602 11.1006 12.6445 11.1213 12.6942C11.1421 12.744 11.1476 12.7987 11.1373 12.8516C11.1269 12.9045 11.1012 12.9531 11.0633 12.9914L11.0602 12.9945C11.0097 13.0448 10.9412 13.073 10.8698 13.073C10.7985 13.073 10.73 13.0448 10.6794 12.9945L10.6754 12.9914ZM9.01018 14.6557C8.97177 14.6174 8.94558 14.5685 8.93493 14.5154C8.92428 14.4622 8.92965 14.407 8.95036 14.3569C8.97107 14.3068 9.00619 14.2639 9.05127 14.2338C9.09635 14.2036 9.14937 14.1875 9.2036 14.1875C9.25784 14.1875 9.31085 14.2036 9.35594 14.2338C9.40102 14.2639 9.43614 14.3068 9.45685 14.3569C9.47756 14.407 9.48293 14.4622 9.47228 14.5154C9.46163 14.5685 9.43544 14.6174 9.39703 14.6557L9.394 14.6587C9.34341 14.709 9.27496 14.7372 9.2036 14.7372C9.13225 14.7372 9.0638 14.709 9.01321 14.6587L9.01018 14.6557ZM7.2966 14.1016L6.33151 13.1365L6.32546 13.1304C6.21526 13.0203 6.12784 12.8894 6.06819 12.7454C6.00855 12.6015 5.97785 12.4471 5.97785 12.2913C5.97785 12.1354 6.00855 11.9811 6.06819 11.8371C6.12784 11.6931 6.21526 11.5623 6.32546 11.4521L6.3305 11.4471L7.87384 9.90375L7.87988 9.8977C8.34328 9.4343 9.09481 9.4343 9.55821 9.8977L9.56325 9.90274L10.5283 10.8678L7.2966 14.1016Z" fill="#80542B"/>
</svg>
