<svg width="11" height="18" viewBox="0 0 11 18" fill="none" xmlns="http://www.w3.org/2000/svg">
<path d="M1.74178 18.0001C1.96586 18.0008 2.18725 17.9584 2.38971 17.8761C2.59216 17.7937 2.77052 17.6736 2.91168 17.5244L10.1561 9.81079C10.3767 9.58075 10.4973 9.29221 10.4973 8.99443C10.4973 8.69665 10.3767 8.40811 10.1561 8.17807L2.65671 0.464428C2.40212 0.201886 2.03628 0.0367828 1.63968 0.00544004C1.24307 -0.0259027 0.848184 0.0790824 0.541885 0.297299C0.235585 0.515516 0.0429657 0.829091 0.006399 1.16904C-0.0301677 1.50899 0.0923137 1.84746 0.346901 2.11L7.05134 9.00086L0.571883 15.8917C0.388473 16.0804 0.271967 16.3102 0.236151 16.5539C0.200335 16.7976 0.246706 17.045 0.36978 17.2668C0.492853 17.4886 0.687477 17.6755 0.930622 17.8055C1.17377 17.9354 1.45526 18.003 1.74178 18.0001Z" fill="black"/>
</svg>
