<svg width="53" height="34" viewBox="0 0 53 34" fill="none" xmlns="http://www.w3.org/2000/svg">
<path d="M0.338762 4.7181L52.6924 5.34579C52.7297 2.70534 50.1515 0.527291 46.943 0.488823L6.2235 0.000616161C3.01502 -0.0378519 0.376086 2.07764 0.338762 4.7181ZM0.304927 7.11171L0.000414438 28.6542C-0.0369095 31.2947 2.54134 33.4727 5.74981 33.5112L46.4693 33.9994C49.6778 34.0379 52.3167 31.9224 52.354 29.2819L52.6585 7.7394L0.304927 7.11171ZM5.8288 27.9236C5.85999 25.717 8.05746 23.9628 10.7297 23.9948L21.4004 24.1228C24.0817 24.1549 26.2196 25.9686 26.1885 28.1677C26.1823 28.609 25.7409 28.9628 25.2047 28.9564L6.79002 28.7356C6.25376 28.7292 5.82256 28.3649 5.8288 27.9236ZM16.2342 12.0907C17.777 12.1092 19.2494 12.6313 20.3277 13.5422C21.4059 14.453 22.0015 15.678 21.9836 16.9477C21.9656 18.2173 21.3356 19.4276 20.232 20.3123C19.1284 21.197 17.6416 21.6837 16.0989 21.6652C14.5561 21.6467 13.0836 21.1246 12.0054 20.2137C10.9272 19.3029 10.3315 18.0779 10.3495 16.8082C10.3674 15.5386 10.9975 14.3283 12.1011 13.4436C13.2047 12.5589 14.6914 12.0722 16.2342 12.0907ZM32.2142 13.4793C32.2235 12.8211 32.8856 12.2904 33.6854 12.3L45.3195 12.4394C46.1194 12.449 46.7662 12.9954 46.7569 13.6537C46.7476 14.3119 46.0855 14.8426 45.2857 14.8331L33.6516 14.6936C32.8517 14.684 32.2049 14.1376 32.2142 13.4793ZM32.1465 18.2665C32.1559 17.6083 32.8179 17.0776 33.6177 17.0872L45.2519 17.2267C46.0517 17.2363 46.6985 17.7827 46.6892 18.4409C46.6799 19.0992 46.0179 19.6299 45.218 19.6203L33.5839 19.4808C32.784 19.4712 32.1372 18.9248 32.1465 18.2665ZM32.0789 23.0538C32.0882 22.3955 32.7502 21.8648 33.5501 21.8744L45.1842 22.0139C45.984 22.0235 46.6309 22.5699 46.6215 23.2281C46.6122 23.8864 45.9502 24.4171 45.1504 24.4075L33.5162 24.268C32.7164 24.2584 32.0696 23.712 32.0789 23.0538Z" fill="#80542B"/>
</svg>
