<svg width="11" height="20" viewBox="0 0 11 20" fill="none" xmlns="http://www.w3.org/2000/svg">
<path d="M8.81761 20C8.59195 20.0007 8.36898 19.9536 8.16509 19.8621C7.96121 19.7707 7.78158 19.6372 7.63941 19.4715L0.343624 10.9008C0.121455 10.6452 0 10.3246 0 9.99374C0 9.66288 0.121455 9.34228 0.343624 9.08668L7.8962 0.516028C8.15259 0.224316 8.52102 0.0408695 8.92044 0.00604445C9.31986 -0.0287806 9.71755 0.0878688 10.026 0.33033C10.3345 0.572792 10.5285 0.921206 10.5653 1.29892C10.6021 1.67664 10.4788 2.05272 10.2224 2.34443L3.47039 10.0009L9.99581 17.6573C10.1805 17.867 10.2979 18.1223 10.3339 18.3931C10.37 18.6638 10.3233 18.9387 10.1994 19.1852C10.0754 19.4316 9.8794 19.6393 9.63453 19.7837C9.38966 19.9281 9.10617 20.0032 8.81761 20Z" fill="#80542B"/>
</svg>
