<svg width="27" height="24" viewBox="0 0 27 24" fill="none" xmlns="http://www.w3.org/2000/svg">
<path d="M24.3 5.33333V2.66667C24.3 1.196 23.0891 0 21.6 0H4.05C1.8171 0 0 1.79467 0 4V20C0 22.9347 2.4219 24 4.05 24H24.3C25.7891 24 27 22.804 27 21.3333V8C27 6.52933 25.7891 5.33333 24.3 5.33333ZM21.6 17.3333H18.9V12H21.6V17.3333ZM4.05 5.33333C3.7024 5.31798 3.3742 5.17079 3.13372 4.92242C2.89325 4.67406 2.75904 4.34365 2.75904 4C2.75904 3.65635 2.89325 3.32594 3.13372 3.07758C3.3742 2.82921 3.7024 2.68202 4.05 2.66667H21.6V5.33333H4.05Z" fill="#80542B"/>
</svg>
