<svg width="23" height="23" viewBox="0 0 23 23" fill="none" xmlns="http://www.w3.org/2000/svg">
<path d="M20.1246 11.0209C20.1246 15.5197 16.4776 19.1667 11.9788 19.1667C10.9468 19.1667 9.95974 18.9749 9.05119 18.6248C8.88508 18.5608 8.80203 18.5288 8.73598 18.5136C8.67101 18.4986 8.62399 18.4924 8.55737 18.4898C8.48964 18.4873 8.41533 18.4949 8.26671 18.5103L3.35906 19.0176C2.89116 19.066 2.65721 19.0901 2.51921 19.006C2.39901 18.9326 2.31714 18.8102 2.29535 18.6711C2.27033 18.5114 2.38212 18.3044 2.60571 17.8906L4.17322 14.9892C4.30231 14.7502 4.36685 14.6308 4.39609 14.5159C4.42496 14.4025 4.43194 14.3206 4.4227 14.2039C4.41335 14.0858 4.36151 13.932 4.25781 13.6243C3.98227 12.8068 3.83292 11.9313 3.83292 11.0209C3.83292 6.52208 7.47993 2.87506 11.9788 2.87506C16.4776 2.87506 20.1246 6.52208 20.1246 11.0209Z" stroke="#171717" stroke-width="1.8359" stroke-linecap="round" stroke-linejoin="round"/>
</svg>
