<svg width="32" height="41" viewBox="0 0 32 41" fill="none" xmlns="http://www.w3.org/2000/svg">
<path d="M23.6538 0H7.88462C5.79425 0.00250393 3.79023 0.834006 2.31212 2.31212C0.834006 3.79023 0.00250393 5.79425 0 7.88462V26.8077C0.00585763 28.5026 0.558811 30.1503 1.57657 31.5056C2.59433 32.8609 4.0225 33.8514 5.64854 34.3296L2.78958 41H6.22096L8.92381 34.6923H22.6147L25.3175 41H28.7489L25.8899 34.3296C27.516 33.8514 28.9441 32.8609 29.9619 31.5056C30.9796 30.1503 31.5326 28.5026 31.5385 26.8077V7.88462C31.536 5.79425 30.7045 3.79023 29.2263 2.31212C27.7482 0.834006 25.7442 0.00250393 23.6538 0ZM7.88462 3.15385H23.6538C24.6291 3.15674 25.5795 3.46146 26.3746 4.02616C27.1697 4.59086 27.7705 5.38785 28.0945 6.30769H3.444C3.76799 5.38785 4.36878 4.59086 5.16388 4.02616C5.95898 3.46146 6.90939 3.15674 7.88462 3.15385ZM28.3846 25.2308H23.6538V28.3846H28.0945C27.7705 29.3045 27.1697 30.1014 26.3746 30.6661C25.5795 31.2308 24.6291 31.5356 23.6538 31.5385H7.88462C6.90939 31.5356 5.95898 31.2308 5.16388 30.6661C4.36878 30.1014 3.76799 29.3045 3.444 28.3846H7.88462V25.2308H3.15385V22.0769H28.3846V25.2308ZM28.3846 18.9231H3.15385V9.46154H28.3846V18.9231Z" fill="white" fill-opacity="0.5"/>
</svg>
