<svg width="32" height="24" viewBox="0 0 32 24" fill="none" xmlns="http://www.w3.org/2000/svg">
<path d="M20.3268 2.56149H11.6738V21.4001H20.3268V2.56149Z" fill="#FF5F00"/>
<path d="M12.2233 11.9808C12.2219 10.1665 12.5612 8.3756 13.2156 6.74369C13.87 5.11178 14.8223 3.68163 16.0003 2.5615C14.5415 1.17227 12.7894 0.308332 10.9445 0.0684261C9.09949 -0.17148 7.23603 0.222318 5.56706 1.20483C3.8981 2.18734 2.49097 3.71891 1.50651 5.62449C0.522057 7.53006 0 9.73274 0 11.9808C0 14.2288 0.522057 16.4315 1.50651 18.3371C2.49097 20.2427 3.8981 21.7742 5.56706 22.7567C7.23603 23.7393 9.09949 24.133 10.9445 23.8931C12.7894 23.6532 14.5415 22.7893 16.0003 21.4001C14.8223 20.2799 13.87 18.8498 13.2156 17.2179C12.5613 15.586 12.2219 13.7951 12.2233 11.9808Z" fill="#EB001B"/>
<path d="M32.0001 11.9808C32.0002 14.2288 31.4782 16.4315 30.4938 18.337C29.5094 20.2426 28.1023 21.7742 26.4334 22.7567C24.7645 23.7392 22.901 24.133 21.0561 23.8931C19.2111 23.6532 17.4591 22.7893 16.0003 21.4001C17.1773 20.2788 18.1288 18.8484 18.7831 17.2168C19.4374 15.5851 19.7774 13.7948 19.7774 11.9808C19.7774 10.1668 19.4374 8.37645 18.7831 6.7448C18.1288 5.11314 17.1773 3.68276 16.0003 2.5615C17.4591 1.17227 19.2111 0.308326 21.0561 0.0684224C22.901 -0.171481 24.7645 0.222335 26.4334 1.20485C28.1023 2.18737 29.5094 3.71895 30.4938 5.62452C31.4782 7.5301 32.0002 9.73277 32.0001 11.9808Z" fill="#F79E1B"/>
<path d="M31.0567 19.4048V19.0191H31.185V18.9405H30.8581V19.0191H30.9865V19.4048H31.0567ZM31.6914 19.4048V18.9398H31.5912L31.4759 19.2596L31.3606 18.9398H31.2603V19.4048H31.3311V19.054L31.4392 19.3564H31.5126L31.6207 19.0532V19.4048H31.6914Z" fill="#F79E1B"/>
</svg>
