<svg width="21" height="20" viewBox="0 0 21 20" fill="none" xmlns="http://www.w3.org/2000/svg">
<path d="M9.16602 5.25C9.16602 5.84674 8.92896 6.41903 8.50701 6.84099C8.08505 7.26295 7.51275 7.5 6.91602 7.5C6.31928 7.5 5.74698 7.26295 5.32503 6.84099C4.90307 6.41903 4.66602 5.84674 4.66602 5.25C4.66602 4.65326 4.90307 4.08097 5.32503 3.65901C5.74698 3.23705 6.31928 3 6.91602 3C7.51275 3 8.08505 3.23705 8.50701 3.65901C8.92896 4.08097 9.16602 4.65326 9.16602 5.25ZM4.41602 8C4.1508 8 3.89645 8.10536 3.70891 8.29289C3.52137 8.48043 3.41602 8.73478 3.41602 9V13.5C3.41602 14.4283 3.78476 15.3185 4.44114 15.9749C5.09752 16.6313 5.98776 17 6.91602 17C7.84427 17 8.73451 16.6313 9.39089 15.9749C10.0473 15.3185 10.416 14.4283 10.416 13.5V9C10.416 8.73478 10.3107 8.48043 10.1231 8.29289C9.93559 8.10536 9.68123 8 9.41602 8H4.41602ZM10.166 5.25C10.166 5.9 9.97602 6.505 9.64602 7.013C10.059 7.061 10.433 7.233 10.73 7.493C11.0912 7.52285 11.4542 7.46502 11.7882 7.32444C12.1222 7.18386 12.4173 6.96469 12.6484 6.68556C12.8795 6.40644 13.0398 6.07562 13.1156 5.72125C13.1914 5.36688 13.1805 4.99945 13.0837 4.65021C12.987 4.30096 12.8074 3.98025 12.5601 3.71534C12.3129 3.45043 12.0053 3.24917 11.6635 3.12867C11.3217 3.00818 10.9559 2.97201 10.5972 3.02326C10.2384 3.0745 9.89738 3.21164 9.60302 3.423C9.95802 3.943 10.166 4.573 10.166 5.25ZM9.91602 16.855C10.3886 16.4333 10.7666 15.9163 11.0251 15.338C11.2836 14.7598 11.4168 14.1334 11.416 13.5V9C11.4165 8.64886 11.324 8.30385 11.148 8H13.416C13.6812 8 13.9356 8.10536 14.1231 8.29289C14.3107 8.48043 14.416 8.73478 14.416 9V13.5C14.4162 14.0452 14.2889 14.5829 14.0445 15.0702C13.8 15.5575 13.4451 15.981 13.008 16.3069C12.5709 16.6327 12.0638 16.852 11.5269 16.9472C10.9901 17.0423 10.4385 17.0108 9.91602 16.855ZM14.166 5.25C14.166 5.9 13.976 6.505 13.646 7.013C14.059 7.061 14.433 7.233 14.73 7.493C15.0912 7.52285 15.4542 7.46502 15.7882 7.32444C16.1222 7.18386 16.4173 6.96469 16.6484 6.68556C16.8795 6.40644 17.0398 6.07562 17.1156 5.72125C17.1914 5.36688 17.1805 4.99945 17.0837 4.65021C16.987 4.30096 16.8074 3.98025 16.5601 3.71534C16.3129 3.45043 16.0053 3.24917 15.6635 3.12867C15.3217 3.00818 14.9559 2.97201 14.5972 3.02326C14.2384 3.0745 13.8974 3.21164 13.603 3.423C13.958 3.943 14.166 4.573 14.166 5.25ZM13.916 16.855C14.3886 16.4333 14.7666 15.9163 15.0251 15.338C15.2836 14.7598 15.4168 14.1334 15.416 13.5V9C15.4165 8.64886 15.324 8.30385 15.148 8H17.416C17.6812 8 17.9356 8.10536 18.1231 8.29289C18.3107 8.48043 18.416 8.73478 18.416 9V13.5C18.4162 14.0452 18.2889 14.5829 18.0445 15.0702C17.8 15.5575 17.4451 15.981 17.008 16.3069C16.5709 16.6327 16.0638 16.852 15.5269 16.9472C14.9901 17.0423 14.4385 17.0108 13.916 16.855Z" fill="#FE0000"/>
</svg>
