<svg width="50" height="50" viewBox="0 0 50 50" fill="none" xmlns="http://www.w3.org/2000/svg">
<g clip-path="url(#clip0_1198_1009)">
<path d="M27.7064 14.5581L45.6939 45.7123C45.9681 46.1873 46.1125 46.7262 46.1125 47.2747C46.1125 47.8233 45.9682 48.3622 45.6939 48.8372C45.4196 49.3123 45.0251 49.7068 44.5501 49.9811C44.075 50.2554 43.5362 50.3998 42.9876 50.3998H7.01262C6.46407 50.3998 5.92519 50.2554 5.45014 49.9811C4.97509 49.7068 4.58061 49.3123 4.30635 48.8372C4.03208 48.3622 3.88769 47.8233 3.8877 47.2747C3.8877 46.7262 4.03209 46.1873 4.30637 45.7123L22.2939 14.5581C23.4959 12.4748 26.5022 12.4748 27.7064 14.5581ZM25.0001 18.2039L8.81678 46.2331H41.1834L25.0001 18.2039ZM25.0001 39.2498C25.5526 39.2498 26.0826 39.4693 26.4733 39.86C26.864 40.2507 27.0834 40.7806 27.0834 41.3331C27.0834 41.8856 26.864 42.4155 26.4733 42.8062C26.0826 43.1969 25.5526 43.4164 25.0001 43.4164C24.4476 43.4164 23.9177 43.1969 23.527 42.8062C23.1363 42.4155 22.9168 41.8856 22.9168 41.3331C22.9168 40.7806 23.1363 40.2507 23.527 39.86C23.9177 39.4693 24.4476 39.2498 25.0001 39.2498ZM25.0001 24.6664C25.5526 24.6664 26.0826 24.8859 26.4733 25.2766C26.864 25.6673 27.0834 26.1972 27.0834 26.7498V35.0831C27.0834 35.6356 26.864 36.1655 26.4733 36.5562C26.0826 36.9469 25.5526 37.1664 25.0001 37.1664C24.4476 37.1664 23.9177 36.9469 23.527 36.5562C23.1363 36.1655 22.9168 35.6356 22.9168 35.0831V26.7498C22.9168 26.1972 23.1363 25.6673 23.527 25.2766C23.9177 24.8859 24.4476 24.6664 25.0001 24.6664Z" fill="#80542B"/>
</g>
<defs>
<clipPath id="clip0_1198_1009">
<rect width="50" height="50" fill="white"/>
</clipPath>
</defs>
</svg>
