<svg width="24" height="24" viewBox="0 0 24 24" fill="none" xmlns="http://www.w3.org/2000/svg">
<path d="M22.0001 13.601L22.9865 13.7657C23.0608 13.3201 22.8272 12.8799 22.4164 12.6918C22.0057 12.5037 21.5198 12.6144 21.2311 12.9619L22.0001 13.601ZM10.3989 2L11.0381 2.76905C11.3855 2.48027 11.4962 1.99441 11.3081 1.58365C11.12 1.17289 10.6798 0.939262 10.2342 1.01365L10.3989 2ZM21.2311 12.9619C19.9018 14.5613 17.9006 15.5769 15.6614 15.5769V17.5769C18.5201 17.5769 21.0762 16.2772 22.7692 14.2402L21.2311 12.9619ZM15.6614 15.5769C11.6638 15.5769 8.42316 12.3362 8.42316 8.33861H6.42316C6.42316 13.4408 10.5593 17.5769 15.6614 17.5769V15.5769ZM8.42316 8.33861C8.42316 6.09943 9.43872 4.09834 11.0381 2.76905L9.75968 1.23095C7.72276 2.92395 6.42316 5.47996 6.42316 8.33861H8.42316ZM3 11.9311C3 7.43588 6.27153 3.70282 10.5635 2.98635L10.2342 1.01365C4.994 1.8884 1 6.44235 1 11.9311H3ZM12.069 21.0001C7.06032 21.0001 3 16.9397 3 11.9311H1C1 18.0443 5.95575 23.0001 12.069 23.0001V21.0001ZM21.0138 13.4364C20.2973 17.7285 16.5642 21.0001 12.069 21.0001V23.0001C17.5578 23.0001 22.1118 19.006 22.9865 13.7657L21.0138 13.4364Z" fill="#171717"/>
</svg>
