<svg width="40" height="40" viewBox="0 0 40 40" fill="none" xmlns="http://www.w3.org/2000/svg">
<path d="M20.0002 3.3335C10.8168 3.3335 3.3335 10.8168 3.3335 20.0002C3.3335 29.1835 10.8168 36.6668 20.0002 36.6668C29.1835 36.6668 36.6668 29.1835 36.6668 20.0002C36.6668 10.8168 29.1835 3.3335 20.0002 3.3335ZM27.9668 16.1668L18.5168 25.6168C18.2835 25.8502 17.9668 25.9835 17.6335 25.9835C17.3002 25.9835 16.9835 25.8502 16.7502 25.6168L12.0335 20.9002C11.5502 20.4168 11.5502 19.6168 12.0335 19.1335C12.5168 18.6502 13.3168 18.6502 13.8002 19.1335L17.6335 22.9668L26.2002 14.4002C26.6835 13.9168 27.4835 13.9168 27.9668 14.4002C28.4502 14.8835 28.4502 15.6668 27.9668 16.1668Z" fill="#41D195"/>
</svg>
