<svg width="43" height="38" viewBox="0 0 43 38" fill="none" xmlns="http://www.w3.org/2000/svg">
<path d="M24.1982 1.58739L42.4723 33.2379C42.7509 33.7206 42.8976 34.268 42.8976 34.8253C42.8976 35.3826 42.7509 35.9301 42.4723 36.4127C42.1936 36.8953 41.7929 37.2961 41.3103 37.5747C40.8276 37.8534 40.2802 38.0001 39.7229 38.0001H3.17471C2.61742 38.0001 2.06996 37.8534 1.58734 37.5747C1.10472 37.2961 0.703957 36.8953 0.425321 36.4127C0.146684 35.9301 -3.53935e-06 35.3826 0 34.8253C3.53948e-06 34.268 0.146698 33.7206 0.425341 33.2379L18.6994 1.58739C19.9207 -0.529132 22.9748 -0.529132 24.1982 1.58739ZM21.4488 5.29132L5.00762 33.7671H37.89L21.4488 5.29132ZM21.4488 26.6725C22.0101 26.6725 22.5485 26.8955 22.9454 27.2924C23.3423 27.6893 23.5653 28.2277 23.5653 28.789C23.5653 29.3503 23.3423 29.8887 22.9454 30.2856C22.5485 30.6825 22.0101 30.9055 21.4488 30.9055C20.8875 30.9055 20.3491 30.6825 19.9522 30.2856C19.5553 29.8887 19.3323 29.3503 19.3323 28.789C19.3323 28.2277 19.5553 27.6893 19.9522 27.2924C20.3491 26.8955 20.8875 26.6725 21.4488 26.6725ZM21.4488 11.8568C22.0101 11.8568 22.5485 12.0798 22.9454 12.4767C23.3423 12.8736 23.5653 13.412 23.5653 13.9733V22.4394C23.5653 23.0008 23.3423 23.5391 22.9454 23.936C22.5485 24.3329 22.0101 24.5559 21.4488 24.5559C20.8875 24.5559 20.3491 24.3329 19.9522 23.936C19.5553 23.5391 19.3323 23.0008 19.3323 22.4394V13.9733C19.3323 13.412 19.5553 12.8736 19.9522 12.4767C20.3491 12.0798 20.8875 11.8568 21.4488 11.8568Z" fill="#D27C2C"/>
</svg>
