<svg width="34" height="34" viewBox="0 0 34 34" fill="none" xmlns="http://www.w3.org/2000/svg">
<path fill-rule="evenodd" clip-rule="evenodd" d="M23.1273 21.1067L30.749 28.7284C31.0169 28.9965 31.1673 29.36 31.1672 29.739C31.167 30.118 31.0164 30.4814 30.7483 30.7493C30.4802 31.0172 30.1167 31.1676 29.7377 31.1674C29.3587 31.1673 28.9953 31.0166 28.7274 30.7486L21.1057 23.1269C18.8273 24.8916 15.9622 25.722 13.0933 25.4493C10.2243 25.1766 7.56699 23.8211 5.66192 21.6587C3.75686 19.4962 2.74714 16.6893 2.83818 13.8088C2.92922 10.9284 4.11417 8.19077 6.15198 6.15296C8.18979 4.11515 10.9274 2.93019 13.8078 2.83916C16.6883 2.74812 19.4953 3.75784 21.6577 5.6629C23.8201 7.56796 25.1756 10.2253 25.4483 13.0942C25.7211 15.9632 24.8906 18.8283 23.1259 21.1067H23.1273ZM14.1669 22.6665C16.4212 22.6665 18.5833 21.7709 20.1773 20.1769C21.7714 18.5828 22.6669 16.4208 22.6669 14.1665C22.6669 11.9121 21.7714 9.75012 20.1773 8.15606C18.5833 6.562 16.4212 5.66647 14.1669 5.66647C11.9126 5.66647 9.75056 6.562 8.1565 8.15606C6.56244 9.75012 5.66691 11.9121 5.66691 14.1665C5.66691 16.4208 6.56244 18.5828 8.1565 20.1769C9.75056 21.7709 11.9126 22.6665 14.1669 22.6665Z" fill="white" fill-opacity="0.55"/>
</svg>
