<svg width="7" height="8" viewBox="0 0 7 8" fill="none" xmlns="http://www.w3.org/2000/svg">
<path d="M2.83935 4.72L2.12951 3.86C2.06898 3.78667 1.99194 3.75 1.8984 3.75C1.80486 3.75 1.72782 3.78667 1.66729 3.86C1.60676 3.93333 1.5765 4.02667 1.5765 4.14C1.5765 4.25333 1.60676 4.34667 1.66729 4.42L2.60824 5.56C2.67427 5.64 2.7513 5.68 2.83935 5.68C2.92739 5.68 3.00442 5.64 3.07045 5.56L4.93584 3.3C4.99637 3.22667 5.02663 3.13333 5.02663 3.02C5.02663 2.90667 4.99637 2.81333 4.93584 2.74C4.87531 2.66667 4.79827 2.63 4.70473 2.63C4.61118 2.63 4.53415 2.66667 4.47362 2.74L2.83935 4.72ZM3.30156 8C2.84485 8 2.41564 7.89493 2.01395 7.6848C1.61226 7.47467 1.26285 7.18973 0.965708 6.83C0.668567 6.47 0.433385 6.04667 0.260163 5.56C0.0869412 5.07333 0.000220104 4.55333 0 4C0 3.44667 0.0867211 2.92667 0.260163 2.44C0.433605 1.95333 0.668787 1.53 0.965708 1.17C1.26285 0.81 1.61226 0.525067 2.01395 0.3152C2.41564 0.105333 2.84485 0.000266667 3.30156 0C3.75828 0 4.18748 0.105067 4.58917 0.3152C4.99086 0.525333 5.34028 0.810267 5.63742 1.17C5.93456 1.53 6.16985 1.95333 6.3433 2.44C6.51674 2.92667 6.60335 3.44667 6.60313 4C6.60313 4.55333 6.51641 5.07333 6.34297 5.56C6.16952 6.04667 5.93434 6.47 5.63742 6.83C5.34028 7.19 4.99086 7.47507 4.58917 7.6852C4.18748 7.89533 3.75828 8.00027 3.30156 8Z" fill="#172B85"/>
</svg>
