<svg width="41" height="41" viewBox="0 0 41 41" fill="none" xmlns="http://www.w3.org/2000/svg">
<path fill-rule="evenodd" clip-rule="evenodd" d="M36.8996 6.14998C36.8994 5.80068 36.81 5.45722 36.6398 5.15219C36.4696 4.84716 36.2243 4.59068 35.9271 4.40708C35.6299 4.22349 35.2908 4.11887 34.9418 4.10315C34.5929 4.08743 34.2457 4.16114 33.9333 4.31728L17.9638 12.3H10.2496C8.61853 12.3 7.05425 12.9479 5.9009 14.1013C4.74755 15.2546 4.09961 16.8189 4.09961 18.45C4.09961 20.0811 4.74755 21.6453 5.9009 22.7987C7.05425 23.952 8.61853 24.6 10.2496 24.6H10.8236L14.4542 35.4978C14.5902 35.9062 14.8513 36.2614 15.2005 36.513C15.5496 36.7647 15.9692 36.9001 16.3996 36.9H18.4496C18.9933 36.9 19.5147 36.684 19.8992 36.2995C20.2836 35.9151 20.4996 35.3937 20.4996 34.85V25.8669L33.9333 32.5827C34.2457 32.7388 34.5929 32.8125 34.9418 32.7968C35.2908 32.7811 35.6299 32.6765 35.9271 32.4929C36.2243 32.3093 36.4696 32.0528 36.6398 31.7478C36.81 31.4427 36.8994 31.0993 36.8996 30.75V6.14998Z" fill="#80542B"/>
</svg>
