<svg width="101" height="83" viewBox="0 0 101 83" fill="none" xmlns="http://www.w3.org/2000/svg">
<rect width="101" height="83" rx="4" fill="white"/>
<path fill-rule="evenodd" clip-rule="evenodd" d="M95.0588 0H5.94118C2.65996 0 0 2.65431 0 5.92857V77.0714C0 80.3457 2.65996 83 5.94118 83H95.0588C98.34 83 101 80.3457 101 77.0714V5.92857C101 2.65431 98.34 0 95.0588 0ZM5.94118 77.0714V5.92857H95.0588V77.0714H5.94118Z" fill="#C2D1D9"/>
<path fill-rule="evenodd" clip-rule="evenodd" d="M16.3381 24.4554C16.3381 30.5946 21.3256 35.5714 27.4778 35.5714C33.6301 35.5714 38.6175 30.5946 38.6175 24.4554C38.6175 18.3161 33.6301 13.3393 27.4778 13.3393C21.3256 13.3393 16.3381 18.3161 16.3381 24.4554ZM32.6764 24.4554C32.6764 27.3203 30.3489 29.6429 27.4778 29.6429C24.6068 29.6429 22.2793 27.3203 22.2793 24.4554C22.2793 21.5904 24.6068 19.2679 27.4778 19.2679C30.3489 19.2679 32.6764 21.5904 32.6764 24.4554Z" fill="#C2D1D9"/>
<path d="M21.4001 70.2837C20.2351 71.4363 18.3542 71.4282 17.1991 70.2656C16.0441 69.1029 16.0522 67.2261 17.2173 66.0735L41.6494 41.903L55.42 53.8553C56.6579 54.9297 56.7886 56.8021 55.7119 58.0373C54.6352 59.2725 52.7588 59.4029 51.521 58.3285L41.9137 49.9898L21.4001 70.2837Z" fill="#C2D1D9"/>
<path d="M43.6889 70.2746C42.5288 71.4322 40.648 71.4323 39.4878 70.2748C38.3277 69.1172 38.3276 67.2403 39.4876 66.0826L78.5846 27.0652L99.9887 45.806C101.222 46.8857 101.344 48.7586 100.262 49.9892C99.1803 51.2198 97.3034 51.3421 96.0702 50.2623L78.8501 35.1849L43.6889 70.2746Z" fill="#C2D1D9"/>
</svg>
