<svg width="40" height="16" viewBox="0 0 40 16" fill="none" xmlns="http://www.w3.org/2000/svg">
<path fill-rule="evenodd" clip-rule="evenodd" d="M10.0007 15.8003H6.53884L3.94288 3.44863C3.81967 2.88045 3.55804 2.37815 3.17321 2.14141C2.21281 1.54647 1.15451 1.07298 0 0.834184V0.358642H5.57675C6.34642 0.358642 6.92367 1.07298 7.01988 1.90261L8.36681 10.8123L11.827 0.358642H15.1926L10.0007 15.8003ZM17.1166 15.8003H13.8472L16.5394 0.358642H19.8088L17.1166 15.8003ZM24.0396 4.63395C24.1358 3.80227 24.7131 3.32673 25.3865 3.32673C26.4448 3.20733 27.5976 3.44613 28.5597 4.03901L29.137 0.714341C28.1749 0.2388 27.1166 0 26.1562 0C22.983 0 20.674 2.13891 20.674 5.10744C20.674 7.36574 22.3095 8.55151 23.464 9.26585C24.7131 9.97813 25.1941 10.4537 25.0979 11.166C25.0979 12.2344 24.1358 12.7099 23.1754 12.7099C22.0209 12.7099 20.8664 12.3538 19.8098 11.7588L19.2325 15.0856C20.387 15.6784 21.6361 15.9172 22.7906 15.9172C26.3486 16.0346 28.5597 13.8977 28.5597 10.6904C28.5597 6.6514 24.0396 6.41466 24.0396 4.63395ZM40.0001 15.8003L37.4042 0.358642H34.6158C34.0386 0.358642 33.4613 0.834184 33.2689 1.54647L28.4618 15.8003H31.8274L32.4992 13.5441H36.6345L37.0193 15.8003H40.0001ZM35.0967 4.51522L36.0571 10.3349H33.365L35.0967 4.51522Z" fill="#172B85"/>
</svg>
