<svg width="26" height="26" viewBox="0 0 26 26" fill="none" xmlns="http://www.w3.org/2000/svg">
<g clip-path="url(#clip0_742_1746)">
<path d="M17.8472 5.85848L20.1417 8.1519L17.8472 5.85848ZM19.3227 3.83806L13.1184 10.0423C12.7978 10.3624 12.5792 10.7703 12.4901 11.2145L11.917 14.0831L14.7857 13.509C15.2298 13.4201 15.6372 13.2024 15.9578 12.8817L22.1621 6.67748C22.3485 6.49104 22.4964 6.26971 22.5973 6.02611C22.6982 5.78252 22.7501 5.52143 22.7501 5.25777C22.7501 4.99411 22.6982 4.73302 22.5973 4.48943C22.4964 4.24584 22.3485 4.0245 22.1621 3.83806C21.9756 3.65162 21.7543 3.50373 21.5107 3.40283C21.2671 3.30193 21.006 3.25 20.7424 3.25C20.4787 3.25 20.2176 3.30193 19.974 3.40283C19.7304 3.50373 19.5091 3.65162 19.3227 3.83806V3.83806Z" stroke="#80542B" stroke-width="2" stroke-linecap="round" stroke-linejoin="round"/>
<path d="M20.5835 16.2498V19.4998C20.5835 20.0745 20.3552 20.6256 19.9489 21.0319C19.5426 21.4382 18.9915 21.6665 18.4168 21.6665H6.50016C5.92553 21.6665 5.37443 21.4382 4.9681 21.0319C4.56177 20.6256 4.3335 20.0745 4.3335 19.4998V7.58317C4.3335 7.00853 4.56177 6.45743 4.9681 6.05111C5.37443 5.64478 5.92553 5.4165 6.50016 5.4165H9.75016" stroke="#80542B" stroke-width="2" stroke-linecap="round" stroke-linejoin="round"/>
</g>
<defs>
<clipPath id="clip0_742_1746">
<rect width="26" height="26" fill="white"/>
</clipPath>
</defs>
</svg>
