<svg width="42" height="23" viewBox="0 0 42 23" fill="none" xmlns="http://www.w3.org/2000/svg">
<path fill-rule="evenodd" clip-rule="evenodd" d="M7.67424 2.89427C7.182 3.65254 6.39441 4.25062 5.60682 4.16518C5.50837 3.13991 5.89396 2.05055 6.34519 1.37771C6.83743 0.598077 7.69885 0.0427198 8.39619 0C8.47823 1.068 8.15828 2.11463 7.67424 2.89427ZM8.38791 4.36804C7.69406 4.31606 7.06096 4.63968 6.54958 4.90109C6.22049 5.06931 5.94182 5.21176 5.72981 5.21176C5.49189 5.21176 5.20171 5.06169 4.8759 4.8932C4.44899 4.67242 3.96091 4.42001 3.44909 4.43212C2.27591 4.45348 1.18477 5.31856 0.585878 6.69627C-0.644727 9.45169 0.265921 13.5314 1.45551 15.7742C2.03799 16.8849 2.73533 18.1024 3.65419 18.0597C4.05843 18.0399 4.34921 17.8792 4.65015 17.713C4.99661 17.5216 5.35652 17.3228 5.9185 17.3228C6.461 17.3228 6.80517 17.5164 7.13555 17.7023C7.4497 17.8791 7.75137 18.0488 8.19922 18.0384C9.15089 18.017 9.74978 16.9277 10.3323 15.8169C10.9609 14.6248 11.2371 13.4614 11.279 13.2849L11.2839 13.2644C11.2829 13.2631 11.2752 13.2585 11.2615 13.2503C11.0513 13.1251 9.44523 12.1679 9.42983 9.60121C9.41436 7.44683 10.7037 6.35529 10.9067 6.18346C10.9191 6.173 10.9274 6.16595 10.9312 6.16227C10.1108 4.58164 8.83093 4.41076 8.38791 4.36804ZM14.9758 17.9209V1.27087H19.7752C22.2528 1.27087 23.9839 3.4923 23.9839 6.739C23.9839 9.98571 22.22 12.2285 19.7095 12.2285H16.9612V17.9209H14.9758ZM16.961 3.4497H19.2499C20.9728 3.4497 21.9573 4.64585 21.9573 6.7498C21.9573 8.85375 20.9728 10.0606 19.2417 10.0606H16.961V3.4497ZM30.539 15.9237C30.0139 17.2267 28.8571 18.049 27.6101 18.049C25.7642 18.049 24.4762 16.6179 24.4762 14.4606C24.4762 12.3246 25.7232 11.0964 28.0285 10.9148L30.5061 10.7226V9.80411C30.5061 8.44775 29.8252 7.71084 28.611 7.71084C27.6101 7.71084 26.88 8.38368 26.7323 9.40895H24.9438C25.0012 7.2516 26.56 5.68165 28.6684 5.68165C30.941 5.68165 32.4177 7.23024 32.4177 9.63323V17.9209H30.58V15.9237H30.539ZM28.1433 16.0734C27.085 16.0734 26.4122 15.4112 26.4122 14.3966C26.4122 13.35 27.0603 12.7412 28.2992 12.6451L30.506 12.4635V13.4034C30.506 14.9626 29.4887 16.0734 28.1433 16.0734ZM38.5132 18.5724C37.7174 21.488 36.8068 22.4492 34.8706 22.4492C34.7229 22.4492 34.2307 22.4279 34.1158 22.3851V20.388C34.2389 20.4093 34.5425 20.4307 34.6983 20.4307C35.5762 20.4307 36.0684 19.9501 36.372 18.7006L36.5524 17.9636L33.1888 5.84191H35.2644L37.6026 15.6781H37.6436L39.9817 5.84191H41.9999L38.5132 18.5724Z" fill="black"/>
</svg>
