<svg width="11" height="18" viewBox="0 0 11 18" fill="none" xmlns="http://www.w3.org/2000/svg">
<path d="M8.7555 18.0001C8.53142 18.0008 8.31003 17.9584 8.10757 17.8761C7.90512 17.7937 7.72676 17.6736 7.58559 17.5244L0.341203 9.81079C0.120599 9.58075 0 9.29221 0 8.99443C0 8.69665 0.120599 8.40811 0.341203 8.17807L7.84057 0.464429C8.09516 0.201886 8.461 0.0367828 8.8576 0.00544004C9.25421 -0.0259027 9.6491 0.0790824 9.9554 0.297299C10.2617 0.515516 10.4543 0.829091 10.4909 1.16904C10.5274 1.50899 10.405 1.84746 10.1504 2.11L3.44594 9.00086L9.9254 15.8917C10.1088 16.0804 10.2253 16.3102 10.2611 16.5539C10.2969 16.7976 10.2506 17.045 10.1275 17.2668C10.0044 17.4886 9.8098 17.6755 9.56666 17.8055C9.32351 17.9354 9.04202 18.003 8.7555 18.0001Z" fill="white"/>
</svg>
