<svg width="41" height="41" viewBox="0 0 41 41" fill="none" xmlns="http://www.w3.org/2000/svg">
<path d="M28.4052 31.0018L28.3126 30.8247L28.3593 30.7583L28.4061 30.6919C29.2391 30.3515 30.0271 29.9097 30.7521 29.3766C31.4524 28.8518 31.9214 28.0859 32.1633 27.0732L32.3396 26.263V5.33581C32.3396 4.83069 32.1887 4.30671 31.8911 3.77371C31.5951 3.23335 31.2175 2.74186 30.7718 2.31657C30.3274 1.88829 29.8237 1.52623 29.2761 1.24155C28.7218 0.959468 28.1937 0.820068 27.6861 0.820068H12.7088C12.2307 0.820068 11.715 0.951268 11.1631 1.21941C10.6095 1.48819 10.0974 1.83533 9.64281 2.25015C9.19043 2.65461 8.80563 3.12882 8.50301 3.65481C8.20453 4.18371 8.05447 4.69375 8.05447 5.20461V26.4434C8.05447 26.801 8.14877 27.174 8.32261 27.5611C8.50301 27.9498 8.72605 28.313 8.99337 28.6525C9.26069 29.0018 9.55507 29.3142 9.86831 29.5955C10.1816 29.8768 10.4858 30.1097 10.7851 30.2876C10.9294 30.3483 11.1943 30.4418 11.5698 30.5607C11.9372 30.6787 12.1094 30.7665 12.0815 30.8239L5.95117 40.1276H9.52719L14.0019 33.6422H26.347L30.8169 40.1276H34.4396L28.4052 31.0018ZM16.6407 2.60685C16.6407 2.45679 16.712 2.30345 16.8646 2.13535C17.0113 1.97217 17.1598 1.89345 17.3115 1.89345H23.0367C23.0941 1.89345 23.2179 1.95085 23.3959 2.06811C23.5722 2.18783 23.6615 2.30673 23.6615 2.42563V4.61667C23.6615 4.76673 23.5861 4.90449 23.4393 5.01847C23.2884 5.14147 23.1523 5.20379 23.0375 5.20379H17.2688L17.0868 5.06193C16.981 4.99122 16.8839 4.90838 16.7973 4.81511C16.7496 4.77433 16.711 4.72399 16.6841 4.66734C16.6571 4.6107 16.6423 4.54901 16.6407 4.48629V2.60685ZM10.8704 8.73389C10.8704 8.43623 10.9409 8.14431 11.0729 7.85977C11.2057 7.57687 11.3788 7.31857 11.587 7.07667C11.797 6.83723 12.043 6.64945 12.3234 6.49939C12.5923 6.35334 12.8932 6.27615 13.1992 6.27471H27.1088C27.3729 6.27471 27.6418 6.33703 27.91 6.45019C28.1789 6.56991 28.4241 6.73719 28.6496 6.94383C28.8743 7.15047 29.0506 7.38007 29.1867 7.61787C29.3195 7.85075 29.3851 8.10659 29.3851 8.37473V13.1168C29.3851 13.3857 29.313 13.6399 29.1637 13.8958C29.0138 14.156 28.8166 14.386 28.5824 14.5739C28.3504 14.7613 28.0945 14.9169 27.8214 15.0364C27.5708 15.1562 27.2964 15.2179 27.0186 15.2168H13.2885L13.0622 15.1766C12.9693 15.1553 12.8788 15.1243 12.7924 15.084C12.2881 14.997 11.8421 14.7273 11.4534 14.2787C11.0647 13.831 10.8704 13.3406 10.8704 12.8052V8.73389ZM15.0105 27.2052C14.5489 27.6816 13.9708 27.9194 13.2885 27.9194C12.6022 27.9194 12.0421 27.6816 11.6075 27.2052C11.1762 26.7296 10.9606 26.1441 10.9606 25.4578C10.9606 24.8321 11.1852 24.2901 11.6338 23.8293C12.0799 23.366 12.6317 23.1314 13.2885 23.1314C13.9708 23.1314 14.5481 23.3528 15.0105 23.7784C15.473 24.2155 15.7034 24.7838 15.7034 25.5045C15.7034 26.1614 15.473 26.7296 15.0105 27.2052ZM25.2515 27.2052C24.7907 26.7296 24.5562 26.1441 24.5562 25.4578C24.5562 24.7706 24.8013 24.2155 25.2942 23.7784C25.7691 23.3562 26.384 23.1257 27.0194 23.1314C27.7 23.1314 28.2626 23.3651 28.6947 23.8293C29.1252 24.2901 29.345 24.8329 29.345 25.4578C29.345 26.1441 29.1195 26.7296 28.6726 27.2052C28.2224 27.6816 27.659 27.9194 26.9702 27.9194C26.2864 27.9194 25.7124 27.6816 25.2515 27.2052Z" fill="#80542B"/>
</svg>
