<svg width="40" height="42" viewBox="0 0 40 42" fill="none" xmlns="http://www.w3.org/2000/svg">
<path d="M28.7216 27.6628C30.0056 26.9985 31.4754 26.6204 33.0406 26.6204H33.046C33.2051 26.6204 33.2794 26.4365 33.1627 26.3343C31.5349 24.9276 29.6754 23.7914 27.6604 22.9723C27.6391 22.962 27.6179 22.9569 27.5967 22.9467C30.8917 20.6423 33.0353 16.8971 33.0353 12.6715C33.0353 5.67153 27.1563 0 19.903 0C12.6497 0 6.77591 5.67153 6.77591 12.6715C6.77591 16.8971 8.91953 20.6423 12.2199 22.9467C12.1986 22.9569 12.1774 22.962 12.1562 22.9723C9.78441 23.938 7.6567 25.3226 5.82613 27.0905C4.00613 28.8399 2.55717 30.9138 1.5601 33.1964C0.579088 35.4316 0.0496457 37.8264 0.000132682 40.2526C-0.00128352 40.3071 0.00864947 40.3613 0.0293467 40.4121C0.0500438 40.4629 0.0810863 40.5092 0.120645 40.5482C0.160203 40.5873 0.207478 40.6183 0.259682 40.6395C0.311887 40.6606 0.367965 40.6715 0.424613 40.6715H3.60291C3.83107 40.6715 4.02209 40.4927 4.02739 40.273C4.13351 36.3285 5.77307 32.6343 8.67546 29.8343C11.6734 26.9372 15.6635 25.3431 19.9083 25.3431C22.9168 25.3431 25.8033 26.1453 28.2918 27.6474C28.3557 27.6861 28.4291 27.7079 28.5045 27.7106C28.58 27.7133 28.6548 27.6968 28.7216 27.6628ZM19.9083 21.4599C17.4781 21.4599 15.1912 20.5453 13.4668 18.8847C12.6183 18.0698 11.9457 17.1012 11.4876 16.0349C11.0296 14.9686 10.7952 13.8255 10.7979 12.6715C10.7979 10.3263 11.7476 8.11898 13.4668 6.45839C15.1859 4.79781 17.4728 3.88321 19.9083 3.88321C22.3437 3.88321 24.6253 4.79781 26.3498 6.45839C27.1982 7.27331 27.8709 8.24183 28.3289 9.30817C28.787 10.3745 29.0214 11.5176 29.0187 12.6715C29.0187 15.0168 28.0689 17.2241 26.3498 18.8847C24.6253 20.5453 22.3384 21.4599 19.9083 21.4599ZM39.4238 33.6204H34.9667V29.3285C34.9667 29.1036 34.7757 28.9197 34.5422 28.9197H31.5709C31.3374 28.9197 31.1464 29.1036 31.1464 29.3285V33.6204H26.6894C26.4559 33.6204 26.2649 33.8044 26.2649 34.0292V36.8905C26.2649 37.1153 26.4559 37.2993 26.6894 37.2993H31.1464V41.5912C31.1464 41.8161 31.3374 42 31.5709 42H34.5422C34.7757 42 34.9667 41.8161 34.9667 41.5912V37.2993H39.4238C39.6572 37.2993 39.8483 37.1153 39.8483 36.8905V34.0292C39.8483 33.8044 39.6572 33.6204 39.4238 33.6204Z" fill="#80542B"/>
</svg>
