<svg width="39" height="39" viewBox="0 0 39 39" fill="none" xmlns="http://www.w3.org/2000/svg">
<path d="M34.4036 32.0749C34.4123 32.0618 34.4253 32.0488 34.434 32.0357C37.285 28.645 39 24.2749 39 19.5C39 14.7251 37.285 10.355 34.4384 6.96429C34.4297 6.95123 34.4166 6.94252 34.4079 6.92946C34.36 6.87288 34.3165 6.82065 34.2686 6.76842C34.2512 6.74665 34.2338 6.72924 34.2164 6.70748L34.0379 6.5029L34.0336 6.49855C33.9683 6.42455 33.8987 6.35056 33.8334 6.27656L33.829 6.27221C33.6897 6.12422 33.5504 5.97623 33.4068 5.83259L33.4025 5.82824L33.1935 5.61931L33.1805 5.60625C33.1152 5.54096 33.0499 5.48002 32.9846 5.41909C32.9628 5.39732 32.9411 5.37556 32.915 5.3538C32.8714 5.31027 32.8279 5.27109 32.7844 5.23192C32.7713 5.21886 32.7539 5.2058 32.7408 5.18839C29.2674 1.96741 24.6144 0 19.5 0C14.3856 0 9.73259 1.96741 6.2548 5.18839C6.24174 5.20145 6.22433 5.21451 6.21127 5.23192C6.16775 5.27109 6.12422 5.31462 6.08069 5.35815C6.05893 5.37991 6.03717 5.40167 6.01105 5.42344C5.94576 5.48438 5.88047 5.54966 5.81518 5.6106L5.80212 5.62366L5.59319 5.83259L5.58884 5.83694C5.4452 5.98058 5.30592 6.12857 5.16663 6.27656L5.16228 6.28092C5.09263 6.35491 5.02734 6.42891 4.96205 6.5029L4.9577 6.50725C4.89676 6.57255 4.83583 6.64219 4.77924 6.71183C4.76183 6.73359 4.74442 6.75101 4.72701 6.77277C4.67913 6.825 4.6356 6.88159 4.58772 6.93382C4.57902 6.94688 4.56596 6.95558 4.55725 6.96864C1.71496 10.355 0 14.7251 0 19.5C0 24.2749 1.71496 28.645 4.56161 32.0357C4.57031 32.0488 4.58337 32.0618 4.59208 32.0749L4.72701 32.2359C4.74442 32.2577 4.76183 32.2751 4.77924 32.2969L4.9577 32.5015C4.9577 32.5058 4.96205 32.5058 4.96205 32.5102C5.02734 32.5842 5.09263 32.6581 5.16228 32.7278L5.16663 32.7321C5.30592 32.8801 5.4452 33.0281 5.58449 33.1718L5.58884 33.1761C5.65848 33.2458 5.72377 33.3154 5.79342 33.3807L5.80647 33.3938C5.95011 33.5374 6.0981 33.6767 6.24609 33.8116C9.73259 37.0326 14.3856 39 19.5 39C24.6144 39 29.2674 37.0326 32.7452 33.8116C32.8935 33.6757 33.0386 33.5364 33.1805 33.3938L33.1935 33.3807C33.2632 33.3111 33.3328 33.2458 33.3981 33.1761L33.4025 33.1718C33.5461 33.0281 33.6854 32.8801 33.8203 32.7321L33.8247 32.7278C33.89 32.6538 33.9596 32.5842 34.0249 32.5102C34.0249 32.5058 34.0292 32.5058 34.0292 32.5015C34.0902 32.4362 34.1511 32.3665 34.2077 32.2969C34.2251 32.2751 34.2425 32.2577 34.2599 32.2359C34.3092 32.1835 34.357 32.1298 34.4036 32.0749ZM34.582 25.868C33.9814 27.2869 33.1892 28.6015 32.2229 29.7941C31.1346 28.8536 29.9448 28.0375 28.6754 27.3609C29.1804 25.3195 29.4938 23.0779 29.5765 20.7188H35.8225C35.692 22.499 35.2741 24.227 34.582 25.868ZM35.8225 18.2812H29.5765C29.4938 15.9221 29.1804 13.6805 28.6754 11.6391C29.9508 10.96 31.1391 10.1417 32.2229 9.20592C34.3234 11.7913 35.5798 14.959 35.8225 18.2812ZM25.868 4.41797C27.596 5.14922 29.1673 6.15904 30.5515 7.43002C29.7474 8.11467 28.8819 8.72372 27.966 9.24944C27.2826 7.29074 26.4077 5.58884 25.3892 4.22645C25.5502 4.28739 25.7113 4.35268 25.868 4.41797ZM21.9244 34.9128C21.524 35.2262 21.1236 35.4656 20.7188 35.6267V27.5525C22.4459 27.673 24.1443 28.0576 25.7548 28.6929C25.3935 29.7636 24.9757 30.7517 24.4925 31.644C23.7352 33.0542 22.8472 34.1816 21.9244 34.9128ZM24.4925 7.35603C24.9713 8.25268 25.3935 9.24074 25.7548 10.3071C24.1443 10.9424 22.4459 11.327 20.7188 11.4475V3.37768C21.1192 3.53873 21.524 3.77377 21.9244 4.09152C22.8472 4.81842 23.7352 5.94576 24.4925 7.35603ZM20.7188 25.1106V20.7188H27.139C27.0693 22.6426 26.8299 24.5099 26.4295 26.2815L26.4164 26.3337C24.5897 25.641 22.6688 25.2287 20.7188 25.1106ZM20.7188 18.2812V13.8894C22.7123 13.7675 24.6275 13.3453 26.4164 12.6663L26.4295 12.7185C26.8299 14.4901 27.0693 16.353 27.139 18.2812H20.7188ZM18.2812 20.7188V25.1106C16.2877 25.2325 14.3725 25.6547 12.5836 26.3337L12.5705 26.2815C12.1701 24.5099 11.9307 22.647 11.861 20.7188H18.2812ZM11.861 18.2812C11.9307 16.3574 12.1701 14.4901 12.5705 12.7185L12.5836 12.6663C14.3725 13.3453 16.2834 13.7675 18.2812 13.8894V18.2812H11.861ZM18.2812 27.5525V35.6223C17.8808 35.4613 17.476 35.2262 17.0756 34.9085C16.1528 34.1816 15.2605 33.0499 14.5031 31.6396C14.0243 30.743 13.6021 29.7549 13.2408 28.6885C14.86 28.053 16.5445 27.6743 18.2812 27.5525ZM18.2812 11.4475C16.5541 11.327 14.8557 10.9424 13.2452 10.3071C13.6065 9.23638 14.0243 8.24833 14.5075 7.35603C15.2648 5.94576 16.1528 4.81406 17.0799 4.08716C17.4804 3.77377 17.8808 3.53438 18.2856 3.37333V11.4475H18.2812ZM13.132 4.41797C13.2931 4.35268 13.4498 4.28739 13.6108 4.22645C12.5923 5.58884 11.7174 7.29074 11.034 9.24944C10.12 8.72712 9.2538 8.11775 8.44855 7.43002C9.8327 6.15904 11.404 5.14922 13.132 4.41797ZM4.41797 13.132C5.01864 11.7131 5.81083 10.3985 6.77712 9.20592C7.86094 10.1417 9.04922 10.96 10.3246 11.6391C9.81964 13.6805 9.50625 15.9221 9.42355 18.2812H3.17746C3.30804 16.501 3.72589 14.773 4.41797 13.132ZM3.17746 20.7188H9.42355C9.50625 23.0779 9.81964 25.3195 10.3246 27.3609C9.05523 28.0375 7.86538 28.8536 6.77712 29.7941C4.67665 27.2087 3.42019 24.041 3.17746 20.7188ZM13.132 34.582C11.404 33.8508 9.8327 32.841 8.44855 31.57C9.2538 30.8823 10.12 30.2772 11.034 29.7506C11.7174 31.7093 12.5923 33.4112 13.6108 34.7736C13.4498 34.7126 13.2887 34.6473 13.132 34.582ZM25.868 34.582C25.7069 34.6473 25.5502 34.7126 25.3892 34.7736C26.4077 33.4112 27.2826 31.7093 27.966 29.7506C28.88 30.2729 29.7462 30.8823 30.5515 31.57C29.175 32.8357 27.5906 33.8546 25.868 34.582Z" fill="#80542B"/>
</svg>
