<svg width="27" height="13" viewBox="0 0 27 13" fill="none" xmlns="http://www.w3.org/2000/svg">
<path d="M1.95183 3.25303C1.95183 2.5344 2.5344 1.95183 3.25303 1.95183H21.1446C21.8633 1.95183 22.4458 2.5344 22.4458 3.25303V9.43376C22.4458 10.1524 21.8633 10.735 21.1446 10.735H3.25303C2.5344 10.735 1.95183 10.1524 1.95183 9.43376V3.25303Z" fill="white"/>
<path opacity="0.4" fill-rule="evenodd" clip-rule="evenodd" d="M3.25302 0.975905H21.1446C22.4022 0.975905 23.4217 1.9954 23.4217 3.25302V9.43374C23.4217 10.6914 22.4022 11.7109 21.1446 11.7109H3.25301C1.9954 11.7109 0.975905 10.6914 0.975905 9.43374V3.25301C0.975905 1.9954 1.9954 0.975905 3.25302 0.975905ZM0 3.25301C0 1.45642 1.45642 0 3.25302 0H21.1446C22.9412 0 24.3976 1.45642 24.3976 3.25302V9.43374C24.3976 11.2303 22.9412 12.6868 21.1446 12.6868H3.25301C1.45642 12.6868 0 11.2303 0 9.43374V3.25301ZM27 6.34338C27 7.34322 26.3061 8.18098 25.3735 8.40126V4.2855C26.3061 4.50578 27 5.34354 27 6.34338Z" fill="white"/>
</svg>
