<svg width="24" height="24" viewBox="0 0 24 24" fill="none" xmlns="http://www.w3.org/2000/svg">
<path fill-rule="evenodd" clip-rule="evenodd" d="M22 12.916C20.5796 14.5854 18.4632 15.6444 16.0995 15.6444C11.8226 15.6444 8.35553 12.1773 8.35553 7.90042C8.35553 5.53676 9.41449 3.42044 11.0839 2C5.98878 2.47283 2 6.75977 2 11.9783C2 17.5131 6.48685 22 12.0216 22C17.2403 22 21.5272 18.0112 22 12.916Z" fill="#FDFDFC"/>
<path d="M22 12.916L22.9957 13.0084C23.036 12.5741 22.7902 12.1638 22.3883 11.9945C21.9864 11.8251 21.521 11.9358 21.2384 12.268L22 12.916ZM11.0839 2L11.7319 2.76161C12.0641 2.47897 12.1747 2.01364 12.0054 1.61171C11.836 1.20979 11.4257 0.963976 10.9915 1.00428L11.0839 2ZM21.2384 12.268C19.9998 13.7236 18.1577 14.6444 16.0995 14.6444V16.6444C18.7687 16.6444 21.1593 15.4472 22.7616 13.5641L21.2384 12.268ZM16.0995 14.6444C12.3749 14.6444 9.35553 11.625 9.35553 7.90042H7.35553C7.35553 12.7296 11.2704 16.6444 16.0995 16.6444V14.6444ZM9.35553 7.90042C9.35553 5.84225 10.2763 4.00016 11.7319 2.76161L10.4358 1.23839C8.55269 2.84072 7.35553 5.23128 7.35553 7.90042H9.35553ZM3 11.9783C3 7.28107 6.59065 3.42127 11.1763 2.99572L10.9915 1.00428C5.3869 1.52439 1 6.23848 1 11.9783H3ZM12.0216 21C7.03913 21 3 16.9609 3 11.9783H1C1 18.0654 5.93456 23 12.0216 23V21ZM21.0043 12.8236C20.5788 17.4093 16.719 21 12.0216 21V23C17.7616 23 22.4757 18.613 22.9957 13.0084L21.0043 12.8236Z" fill="#FDFDFC"/>
</svg>
