<svg width="48" height="48" viewBox="0 0 48 48" fill="none" xmlns="http://www.w3.org/2000/svg">
<path d="M18.8741 46.9458C18.8259 46.8641 18.7674 46.7888 18.7001 46.7218L18.6561 46.6798L18.6581 46.6818C18.3599 46.3888 17.9653 46.2144 17.5479 46.1912C17.1305 46.168 16.7189 46.2976 16.3901 46.5558L16.3841 46.5618L14.4201 44.5978C14.6808 44.2693 14.8124 43.8569 14.7903 43.4381C14.7682 43.0194 14.5939 42.6231 14.3001 42.3238C14.0019 42.0308 13.6073 41.8564 13.1899 41.8332C12.7725 41.81 12.3609 41.9396 12.0321 42.1978L12.0261 42.2038L10.0621 40.2398C10.3228 39.9113 10.4544 39.4989 10.4323 39.0801C10.4102 38.6614 10.2359 38.2651 9.94211 37.9658C9.64395 37.6728 9.24927 37.4984 8.83186 37.4752C8.41445 37.452 8.00289 37.5816 7.6741 37.8398L7.66811 37.8458L5.7041 35.8818C5.96475 35.5533 6.09641 35.1409 6.07431 34.7221C6.05221 34.3034 5.87788 33.9071 5.58411 33.6078C5.28595 33.3148 4.89127 33.1404 4.47386 33.1172C4.05645 33.094 3.64489 33.2236 3.31611 33.4818L3.31011 33.4878L1.34611 31.5238C1.60675 31.1953 1.73841 30.7829 1.71631 30.3641C1.69421 29.9454 1.51988 29.5491 1.22611 29.2498C1.17811 29.2018 1.10811 29.1778 1.05811 29.1298L28.8901 1.29785C28.9101 1.34585 28.9421 1.39585 28.9841 1.43785L29.0141 1.46585L29.0121 1.46385L29.0241 1.47585C29.1798 1.63175 29.3646 1.75543 29.5681 1.83981C29.7717 1.9242 29.9898 1.96763 30.2101 1.96763C30.4304 1.96763 30.6486 1.9242 30.8521 1.83981C31.0556 1.75543 31.2404 1.63175 31.3961 1.47585L31.4081 1.46385C31.4561 1.41585 31.4561 1.36785 31.5041 1.31985L33.4701 3.28585C33.423 3.30024 33.3803 3.3264 33.3461 3.36185L33.3261 3.38385C33.1607 3.56303 33.0339 3.77436 32.9537 4.00467C32.8736 4.23498 32.8417 4.47933 32.8601 4.7225C32.8785 4.96567 32.9467 5.20245 33.0606 5.41809C33.1745 5.63372 33.3316 5.82358 33.5221 5.97585L33.5161 5.96985L33.5281 5.98185C33.6838 6.13775 33.8686 6.26143 34.0721 6.34581C34.2757 6.4302 34.4938 6.47363 34.7141 6.47363C34.9344 6.47363 35.1526 6.4302 35.3561 6.34581C35.5596 6.26143 35.7444 6.13775 35.9001 5.98185L35.9121 5.96985C35.9601 5.92185 35.9601 5.87385 36.0081 5.82585L37.9721 7.78985C37.925 7.80424 37.8823 7.8304 37.8481 7.86585L37.8281 7.88785C37.5104 8.20558 37.3319 8.63651 37.3319 9.08585C37.3319 9.53519 37.5104 9.96612 37.8281 10.2839C38.1458 10.6016 38.5768 10.7801 39.0261 10.7801C39.4754 10.7801 39.9064 10.6016 40.2241 10.2839C40.2721 10.2359 40.2721 10.1879 40.3201 10.1399L42.2841 12.1039C42.2361 12.1185 42.1926 12.1454 42.1581 12.1819L42.1401 12.2018C41.9828 12.3592 41.858 12.5459 41.7728 12.7515C41.6877 12.9571 41.6439 13.1774 41.6439 13.3998C41.6439 13.6223 41.6877 13.8427 41.7728 14.0482C41.858 14.2538 41.9828 14.4405 42.1401 14.5978C42.2974 14.7552 42.4842 14.88 42.6898 14.9651C42.8953 15.0503 43.1156 15.0941 43.3381 15.0941C43.5606 15.0941 43.7809 15.0503 43.9865 14.9651C44.192 14.88 44.3788 14.7552 44.5361 14.5978C44.5841 14.5499 44.5841 14.5019 44.6321 14.4539L46.5961 16.4178C46.549 16.4322 46.5063 16.4584 46.4721 16.4938L46.4521 16.5159L46.4401 16.5279C46.2842 16.6835 46.1605 16.8684 46.0761 17.0719C45.9918 17.2754 45.9483 17.4935 45.9483 17.7139C45.9483 17.9342 45.9918 18.1523 46.0761 18.3558C46.1605 18.5593 46.2842 18.7442 46.4401 18.8998L46.4501 18.9098L46.4881 18.9499C46.5574 19.0195 46.6354 19.08 46.7201 19.1298L46.7141 19.1258L18.8741 46.9458ZM37.3941 25.1678L37.6341 25.4079C37.7304 25.4978 37.8578 25.5467 37.9895 25.5445C38.1212 25.5422 38.2469 25.4889 38.34 25.3958C38.4332 25.3026 38.4865 25.177 38.4887 25.0453C38.491 24.9136 38.442 24.7861 38.3521 24.6898L38.1081 24.4458C38.0118 24.3559 37.8844 24.307 37.7527 24.3092C37.621 24.3115 37.4953 24.3648 37.4022 24.4579C37.309 24.5511 37.2557 24.6767 37.2535 24.8084C37.2512 24.9401 37.3002 25.0676 37.3901 25.1638L37.3941 25.1678ZM37.3701 15.6599L41.5861 19.8758C41.6824 19.9657 41.8098 20.0147 41.9415 20.0125C42.0732 20.0102 42.1989 19.9569 42.292 19.8638C42.3852 19.7706 42.4385 19.645 42.4407 19.5133C42.443 19.3816 42.394 19.2541 42.3041 19.1579L38.0881 14.9419C37.9918 14.852 37.8644 14.803 37.7327 14.8052C37.601 14.8075 37.4753 14.8608 37.3822 14.9539C37.289 15.0471 37.2357 15.1727 37.2335 15.3044C37.2312 15.4361 37.2802 15.5636 37.3701 15.6599ZM26.4661 7.87985L40.0221 21.4359C40.1184 21.5258 40.2458 21.5747 40.3775 21.5725C40.5092 21.5702 40.6349 21.5169 40.728 21.4238C40.8212 21.3306 40.8745 21.205 40.8767 21.0733C40.879 20.9416 40.83 20.8141 40.7401 20.7178L27.1841 7.16185C27.0878 7.07195 26.9604 7.02296 26.8287 7.02521C26.697 7.02747 26.5713 7.08079 26.4782 7.17393C26.385 7.26707 26.3317 7.39275 26.3295 7.52445C26.3272 7.65615 26.3762 7.78358 26.4661 7.87985ZM30.7541 28.9338H31.3301C31.4665 28.9229 31.5945 28.8637 31.6912 28.767C31.788 28.6702 31.8471 28.5422 31.8581 28.4058V28.4079C31.8534 28.3412 31.8353 28.2763 31.8048 28.2169C31.7743 28.1575 31.732 28.1049 31.6806 28.0622C31.6292 28.0196 31.5697 27.9879 31.5057 27.9689C31.4416 27.9499 31.3744 27.9441 31.3081 27.9518H27.0441C26.9779 27.9508 26.9121 27.963 26.8507 27.9879C26.7893 28.0127 26.7336 28.0496 26.6867 28.0965C26.6399 28.1433 26.603 28.1991 26.5781 28.2605C26.5533 28.3219 26.541 28.3876 26.5421 28.4538C26.5349 28.536 26.5516 28.6184 26.5903 28.6912C26.629 28.7639 26.688 28.8239 26.7601 28.8638L26.7581 28.8618L21.7521 33.8678C21.7107 33.7978 21.6506 33.7407 21.5785 33.7029C21.5064 33.6651 21.4253 33.6481 21.3441 33.6538C21.2776 33.6522 21.2115 33.6641 21.1498 33.6887C21.088 33.7133 21.0319 33.7502 20.9848 33.7971C20.9377 33.844 20.9006 33.9 20.8757 33.9617C20.8508 34.0233 20.8387 34.0894 20.8401 34.1558L20.8381 38.4178C20.837 38.4841 20.8493 38.5498 20.8741 38.6112C20.899 38.6726 20.9359 38.7284 20.9827 38.7752C21.0296 38.8221 21.0853 38.859 21.1467 38.8838C21.2081 38.9087 21.2739 38.9209 21.3401 38.9198C21.4765 38.9089 21.6045 38.8497 21.7012 38.753C21.798 38.6562 21.8571 38.5282 21.8681 38.3918V38.3938V37.8178L30.7541 28.9338ZM35.7121 23.4958L35.9521 23.7358C36.0484 23.8258 36.1758 23.8747 36.3075 23.8725C36.4392 23.8702 36.5649 23.8169 36.658 23.7238C36.7512 23.6306 36.8045 23.505 36.8067 23.3733C36.809 23.2416 36.76 23.1141 36.6701 23.0178L36.4301 22.7778C36.3338 22.688 36.2064 22.639 36.0747 22.6412C35.943 22.6435 35.8173 22.6968 35.7242 22.7899C35.631 22.8831 35.5777 23.0087 35.5755 23.1404C35.5732 23.2722 35.6222 23.3996 35.7121 23.4958ZM34.0361 21.8198L34.2761 22.0598C34.3724 22.1497 34.4998 22.1987 34.6315 22.1965C34.7632 22.1942 34.8889 22.1409 34.982 22.0478C35.0752 21.9546 35.1285 21.829 35.1307 21.6973C35.133 21.5656 35.084 21.4381 34.9941 21.3418L34.7541 21.1018C34.6578 21.0119 34.5304 20.963 34.3987 20.9652C34.267 20.9675 34.1413 21.0208 34.0482 21.1139C33.955 21.2071 33.9017 21.3327 33.8995 21.4644C33.8972 21.5961 33.9462 21.7236 34.0361 21.8198ZM32.3601 20.1438L32.6001 20.3839C32.6964 20.4738 32.8238 20.5227 32.9555 20.5205C33.0872 20.5182 33.2129 20.4649 33.306 20.3718C33.3992 20.2786 33.4525 20.153 33.4547 20.0213C33.457 19.8896 33.408 19.7621 33.3181 19.6658L33.0761 19.4238C32.9798 19.334 32.8524 19.285 32.7207 19.2872C32.589 19.2895 32.4633 19.3428 32.3702 19.4359C32.277 19.5291 32.2237 19.6547 32.2215 19.7864C32.2192 19.9181 32.2682 20.0456 32.3581 20.1418L32.3601 20.1438ZM12.5041 23.6158L12.5761 23.6878C12.0964 24.3415 11.8664 25.1452 11.9277 25.9536C11.9889 26.7621 12.3374 27.5219 12.9101 28.0958L17.7781 32.9639C18.1532 33.3388 18.6618 33.5494 19.1921 33.5494C19.7224 33.5494 20.231 33.3388 20.6061 32.9639L25.6361 27.9338C26.011 27.5588 26.2217 27.0502 26.2217 26.5198C26.2217 25.9895 26.011 25.4809 25.6361 25.1059L20.7681 20.2379C20.1967 19.6666 19.4403 19.318 18.6349 19.2545C17.8295 19.1911 17.0278 19.4171 16.3741 19.8918L16.3581 19.9038L16.2861 19.8319C16.1894 19.7395 16.0608 19.688 15.9271 19.688C15.7934 19.688 15.6648 19.7395 15.5681 19.8319L12.5041 22.8958C12.4118 22.9926 12.3603 23.1211 12.3603 23.2548C12.3603 23.3886 12.4118 23.5171 12.5041 23.6138V23.6158ZM30.6781 18.4739L30.9181 18.7139C31.0144 18.8038 31.1418 18.8527 31.2735 18.8505C31.4052 18.8482 31.5309 18.7949 31.624 18.7018C31.7172 18.6086 31.7705 18.483 31.7727 18.3513C31.775 18.2196 31.726 18.0921 31.6361 17.9958L31.3941 17.7538C31.2978 17.6639 31.1704 17.615 31.0387 17.6172C30.907 17.6195 30.7813 17.6728 30.6882 17.7659C30.595 17.8591 30.5417 17.9847 30.5395 18.1164C30.5372 18.2481 30.5862 18.3756 30.6761 18.4718L30.6781 18.4739ZM29.0021 16.7979L29.2401 17.0358C29.3364 17.1257 29.4638 17.1747 29.5955 17.1725C29.7272 17.1702 29.8529 17.1169 29.946 17.0238C30.0392 16.9306 30.0925 16.805 30.0947 16.6733C30.097 16.5416 30.048 16.4141 29.9581 16.3179L29.7201 16.0799C29.6238 15.99 29.4964 15.941 29.3647 15.9432C29.233 15.9455 29.1073 15.9988 29.0142 16.0919C28.921 16.1851 28.8677 16.3107 28.8655 16.4424C28.8632 16.5742 28.9122 16.7016 29.0021 16.7979ZM27.3241 15.1199L27.5641 15.3598C27.6604 15.4497 27.7878 15.4987 27.9195 15.4965C28.0512 15.4942 28.1769 15.4409 28.27 15.3478C28.3632 15.2546 28.4165 15.129 28.4187 14.9973C28.421 14.8656 28.372 14.7381 28.2821 14.6419L28.0421 14.4019C27.9458 14.312 27.8184 14.263 27.6867 14.2652C27.555 14.2675 27.4293 14.3208 27.3362 14.4139C27.243 14.5071 27.1897 14.6327 27.1875 14.7644C27.1852 14.8961 27.2342 15.0236 27.3241 15.1199ZM30.6761 9.13185L31.8741 10.3299C31.9704 10.4198 32.0978 10.4687 32.2295 10.4665C32.3612 10.4642 32.4869 10.4109 32.58 10.3178C32.6732 10.2246 32.7265 10.099 32.7287 9.96725C32.731 9.83555 32.682 9.70812 32.5921 9.61185L31.3941 8.41385C31.2978 8.32395 31.1704 8.27496 31.0387 8.27721C30.907 8.27947 30.7813 8.33279 30.6882 8.42593C30.595 8.51907 30.5417 8.64475 30.5395 8.77645C30.5372 8.90815 30.5862 9.03558 30.6761 9.13185ZM25.6481 13.4439L25.8881 13.6839C25.9844 13.7738 26.1118 13.8227 26.2435 13.8205C26.3752 13.8182 26.5009 13.7649 26.594 13.6718C26.6872 13.5786 26.7405 13.453 26.7427 13.3213C26.745 13.1896 26.696 13.0621 26.6061 12.9658L26.3661 12.7259C26.2698 12.636 26.1424 12.587 26.0107 12.5892C25.879 12.5915 25.7533 12.6448 25.6602 12.7379C25.567 12.8311 25.5137 12.9567 25.5115 13.0884C25.5092 13.2201 25.5582 13.3476 25.6481 13.4439ZM28.0661 6.52185L29.2581 7.71385C29.3544 7.80375 29.4818 7.85274 29.6135 7.85049C29.7452 7.84824 29.8709 7.79491 29.964 7.70177C30.0572 7.60863 30.1105 7.48296 30.1127 7.35125C30.115 7.21955 30.066 7.09212 29.9761 6.99585L28.7841 5.80385C28.6878 5.71395 28.5604 5.66496 28.4287 5.66721C28.297 5.66947 28.1713 5.72279 28.0782 5.81593C27.985 5.90907 27.9317 6.03475 27.9295 6.16645C27.9272 6.29815 27.9762 6.42558 28.0661 6.52185ZM23.9721 11.7659L24.2121 12.0058C24.3084 12.0957 24.4358 12.1447 24.5675 12.1425C24.6992 12.1402 24.8249 12.0869 24.918 11.9938C25.0112 11.9006 25.0645 11.775 25.0667 11.6433C25.069 11.5116 25.02 11.3841 24.9301 11.2879L24.6881 11.0458C24.5918 10.9559 24.4644 10.907 24.3327 10.9092C24.201 10.9115 24.0753 10.9648 23.9822 11.0579C23.889 11.1511 23.8357 11.2767 23.8335 11.4084C23.8312 11.5402 23.8802 11.6676 23.9701 11.7639L23.9721 11.7659ZM22.2941 10.0899L22.5341 10.3299C22.6304 10.4198 22.7578 10.4687 22.8895 10.4665C23.0212 10.4642 23.1469 10.4109 23.24 10.3178C23.3332 10.2246 23.3865 10.099 23.3887 9.96725C23.391 9.83555 23.342 9.70812 23.2521 9.61185L23.0101 9.36985C22.9138 9.27995 22.7864 9.23096 22.6547 9.23321C22.523 9.23547 22.3973 9.28879 22.3042 9.38193C22.211 9.47507 22.1577 9.60075 22.1555 9.73245C22.1532 9.86415 22.2022 9.99158 22.2921 10.0879L22.2941 10.0899ZM21.8701 36.3818L21.8461 35.1598L28.0961 28.9098L29.3181 28.9338L21.8701 36.3818ZM19.8801 32.2378C19.6954 32.4214 19.4455 32.5244 19.1851 32.5244C18.9247 32.5244 18.6748 32.4214 18.4901 32.2378L16.2641 30.0118L22.6841 23.5918L24.9101 25.8179C25.0937 26.0026 25.1967 26.2524 25.1967 26.5128C25.1967 26.7733 25.0937 27.0231 24.9101 27.2078L19.8801 32.2378ZM21.5561 27.8319C21.7739 28.0499 22.0515 28.1985 22.3538 28.2588C22.6561 28.319 22.9694 28.2883 23.2542 28.1704C23.539 28.0526 23.7825 27.8529 23.9537 27.5966C24.125 27.3404 24.2164 27.0391 24.2164 26.7309C24.2164 26.4226 24.125 26.1213 23.9537 25.8651C23.7825 25.6088 23.539 25.4091 23.2542 25.2913C22.9694 25.1734 22.6561 25.1427 22.3538 25.2029C22.0515 25.2632 21.7739 25.4118 21.5561 25.6298C21.2687 25.9242 21.1077 26.3194 21.1077 26.7309C21.1077 27.1423 21.2687 27.5374 21.5561 27.8319ZM18.2521 31.1378L18.2541 31.1398C18.3983 31.2844 18.5696 31.3992 18.7582 31.4774C18.9467 31.5557 19.1489 31.596 19.3531 31.596C19.5573 31.596 19.7595 31.5557 19.9481 31.4774C20.1366 31.3992 20.3079 31.2844 20.4521 31.1398L20.4541 31.1378C21.0521 30.5259 21.0521 29.5478 20.4541 28.9359C19.8561 28.3239 20.4521 28.9338 20.4521 28.9338C20.3079 28.7893 20.1366 28.6745 19.9481 28.5963C19.7595 28.518 19.5573 28.4777 19.3531 28.4777C19.1489 28.4777 18.9467 28.518 18.7582 28.5963C18.5696 28.6745 18.3983 28.7893 18.2541 28.9338L18.2521 28.9359C17.9647 29.2303 17.8037 29.6254 17.8037 30.0368C17.8037 30.4483 17.9647 30.8434 18.2521 31.1378ZM22.2521 27.0898C22.1768 27.0139 22.1257 26.9173 22.1052 26.8123C22.0846 26.7073 22.0957 26.5985 22.1368 26.4998C22.178 26.401 22.2475 26.3167 22.3365 26.2574C22.4255 26.198 22.5301 26.1664 22.6371 26.1664C22.7441 26.1664 22.8487 26.198 22.9377 26.2574C23.0267 26.3167 23.0962 26.401 23.1374 26.4998C23.1785 26.5985 23.1896 26.7073 23.169 26.8123C23.1485 26.9173 23.0974 27.0139 23.0221 27.0898L23.0161 27.0958C22.9157 27.1958 22.7798 27.2518 22.6381 27.2518C22.4964 27.2518 22.3605 27.1958 22.2601 27.0958L22.2541 27.0898H22.2521ZM18.9461 30.3938C18.8698 30.3178 18.8178 30.2209 18.7967 30.1153C18.7756 30.0098 18.7862 29.9003 18.8273 29.8008C18.8685 29.7013 18.9382 29.6162 19.0277 29.5563C19.1172 29.4965 19.2224 29.4645 19.3301 29.4645C19.4378 29.4645 19.543 29.4965 19.6325 29.5563C19.722 29.6162 19.7918 29.7013 19.8329 29.8008C19.874 29.9003 19.8847 30.0098 19.8635 30.1153C19.8424 30.2209 19.7904 30.3178 19.7141 30.3938L19.7081 30.3998C19.6077 30.4998 19.4718 30.5558 19.3301 30.5558C19.1884 30.5558 19.0525 30.4998 18.9521 30.3998L18.9461 30.3938ZM15.5441 29.2938L13.6281 27.3778L13.6161 27.3658C13.3973 27.1471 13.2238 26.8873 13.1053 26.6015C12.9869 26.3156 12.926 26.0093 12.926 25.6999C12.926 25.3904 12.9869 25.0841 13.1053 24.7982C13.2238 24.5124 13.3973 24.2526 13.6161 24.0338L13.6261 24.0238L16.6901 20.9598L16.7021 20.9478C17.6221 20.0278 19.1141 20.0278 20.0341 20.9478L20.0441 20.9578L21.9601 22.8738L15.5441 29.2938Z" fill="#80542B"/>
</svg>
