<svg width="47" height="24" viewBox="0 0 47 24" fill="none" xmlns="http://www.w3.org/2000/svg">
<path fill-rule="evenodd" clip-rule="evenodd" d="M21.6766 18.7543V11.7182H24.6079C25.809 11.7182 26.8229 11.2196 27.6493 10.2362L27.8477 9.98684C29.3574 7.95079 29.2582 4.77899 27.6493 2.8953C26.8449 1.89805 25.7429 1.35787 24.6079 1.38558H19.9025V18.7543H21.6766ZM21.6769 9.58502V3.51842H24.6527C25.2919 3.51842 25.8981 3.82314 26.35 4.37717C27.3089 5.54062 27.3309 7.47972 26.4051 8.68473C25.9532 9.2803 25.314 9.61272 24.6527 9.58502H21.6769Z" fill="#3C4043"/>
<path fill-rule="evenodd" clip-rule="evenodd" d="M36.1236 7.79833C35.3632 6.92574 34.3273 6.48251 33.016 6.48251C31.33 6.48251 30.0627 7.25815 29.2252 8.79558L30.79 10.0283C31.363 8.97564 32.1454 8.44931 33.1372 8.44931C33.7653 8.44931 34.3714 8.74017 34.8453 9.2665C35.3081 9.76512 35.5726 10.4854 35.5726 11.2471V11.7596C34.8893 11.2887 34.0298 11.0394 32.9719 11.0394C31.7377 11.0394 30.7459 11.3995 30.0076 12.1336C29.2693 12.8677 28.8946 13.8372 28.8946 15.0699C28.8726 16.1918 29.2583 17.2583 29.9415 17.9786C30.6357 18.7542 31.5173 19.142 32.5532 19.142C33.7764 19.142 34.7461 18.4633 35.4844 17.106H35.5616V18.7542H37.2586V11.4272C37.2586 9.88978 36.8839 8.67092 36.1236 7.79833ZM31.3082 16.5659C30.9445 16.2334 30.7241 15.6933 30.7241 15.1115C30.7241 14.4606 30.9666 13.9204 31.4405 13.491C31.9254 13.0616 32.5316 12.84 33.248 12.84C34.24 12.8262 35.0115 13.1032 35.5625 13.6572C35.5625 14.5991 35.265 15.4163 34.6808 16.1088C34.1518 16.7736 33.4354 17.1476 32.6859 17.1476C32.19 17.1614 31.705 16.9537 31.3082 16.5659Z" fill="#3C4043"/>
<path d="M41.0715 23.9759L47.0001 6.87032H45.0716L42.3277 15.4023H42.2947L39.4846 6.87032H37.5562L41.4461 17.9924L39.2422 23.9759H41.0715Z" fill="#3C4043"/>
<path d="M15.5515 10.1947C15.5515 9.51598 15.5075 8.83729 15.4193 8.17246H7.9369V12.0091H12.2236C12.0473 13.2418 11.4742 14.3499 10.6367 15.0424V17.5355H13.1933C14.692 15.8042 15.5515 13.2418 15.5515 10.1947Z" fill="#4285F4"/>
<path d="M7.93721 19.9456C10.075 19.9456 11.882 19.0591 13.1933 17.5355L10.6367 15.0424C9.92045 15.6518 9.00612 15.9982 7.93721 15.9982C5.8655 15.9982 4.11336 14.2392 3.48523 11.8845H0.851515V14.4608C2.19592 17.8265 4.93984 19.9456 7.93721 19.9456Z" fill="#34A853"/>
<path d="M3.48523 11.8845C3.15459 10.6518 3.1549 9.30825 3.48555 8.06169V5.49932H0.85141C-0.283803 8.311 -0.283803 11.6352 0.85141 14.4468L3.48523 11.8845Z" fill="#FBBC04"/>
<path d="M7.93721 3.94804C9.07224 3.92034 10.1632 4.46052 10.9787 5.44392L13.2487 2.59068C11.8051 0.900896 9.90974 -0.0270986 7.93721 0.000602795C4.93984 0.000602795 2.19582 2.1336 0.85141 5.49932L3.48523 8.07555C4.11336 5.70708 5.8655 3.94804 7.93721 3.94804Z" fill="#EA4335"/>
</svg>
