<svg width="26" height="26" viewBox="0 0 26 26" fill="none" xmlns="http://www.w3.org/2000/svg">
<g clip-path="url(#clip0_736_1625)">
<path d="M20.5 4.25C20.8315 4.25 21.1495 4.3817 21.3839 4.61612C21.6183 4.85054 21.75 5.16848 21.75 5.5V20.5C21.75 20.8315 21.6183 21.1495 21.3839 21.3839C21.1495 21.6183 20.8315 21.75 20.5 21.75H5.5C5.16848 21.75 4.85054 21.6183 4.61612 21.3839C4.3817 21.1495 4.25 20.8315 4.25 20.5V5.5C4.25 5.16848 4.3817 4.85054 4.61612 4.61612C4.85054 4.3817 5.16848 4.25 5.5 4.25H20.5ZM5.5 3C4.83696 3 4.20107 3.26339 3.73223 3.73223C3.26339 4.20107 3 4.83696 3 5.5L3 20.5C3 21.163 3.26339 21.7989 3.73223 22.2678C4.20107 22.7366 4.83696 23 5.5 23H20.5C21.163 23 21.7989 22.7366 22.2678 22.2678C22.7366 21.7989 23 21.163 23 20.5V5.5C23 4.83696 22.7366 4.20107 22.2678 3.73223C21.7989 3.26339 21.163 3 20.5 3H5.5Z" fill="#80542B"/>
<path d="M13 8C13.1658 8 13.3247 8.06585 13.4419 8.18306C13.5592 8.30027 13.625 8.45924 13.625 8.625V12.375H17.375C17.5408 12.375 17.6997 12.4408 17.8169 12.5581C17.9342 12.6753 18 12.8342 18 13C18 13.1658 17.9342 13.3247 17.8169 13.4419C17.6997 13.5592 17.5408 13.625 17.375 13.625H13.625V17.375C13.625 17.5408 13.5592 17.6997 13.4419 17.8169C13.3247 17.9342 13.1658 18 13 18C12.8342 18 12.6753 17.9342 12.5581 17.8169C12.4408 17.6997 12.375 17.5408 12.375 17.375V13.625H8.625C8.45924 13.625 8.30027 13.5592 8.18306 13.4419C8.06585 13.3247 8 13.1658 8 13C8 12.8342 8.06585 12.6753 8.18306 12.5581C8.30027 12.4408 8.45924 12.375 8.625 12.375H12.375V8.625C12.375 8.45924 12.4408 8.30027 12.5581 8.18306C12.6753 8.06585 12.8342 8 13 8Z" fill="#80542B"/>
</g>
<defs>
<clipPath id="clip0_736_1625">
<rect width="20" height="20" fill="white" transform="translate(3 3)"/>
</clipPath>
</defs>
</svg>
