<svg width="27" height="27" viewBox="0 0 27 27" fill="none" xmlns="http://www.w3.org/2000/svg">
<g clip-path="url(#clip0_746_1534)">
<g clip-path="url(#clip1_746_1534)">
<path d="M10.8001 5.80482C8.8309 5.80482 6.94233 6.5871 5.54987 7.97956C4.15741 9.37201 3.37514 11.2606 3.37514 13.2298V14.7148H4.86014C5.25398 14.7148 5.6317 14.8713 5.91019 15.1498C6.18868 15.4283 6.34514 15.806 6.34514 16.1998V20.6548C6.34514 21.0487 6.18868 21.4264 5.91019 21.7049C5.6317 21.9834 5.25398 22.1398 4.86014 22.1398H3.37514C2.98129 22.1398 2.60357 21.9834 2.32508 21.7049C2.04659 21.4264 1.89014 21.0487 1.89014 20.6548V13.2298C1.89014 12.0597 2.1206 10.9011 2.56837 9.82012C3.01614 8.7391 3.67245 7.75687 4.49982 6.9295C5.32719 6.10213 6.30942 5.44583 7.39043 4.99806C8.47144 4.55029 9.63006 4.31982 10.8001 4.31982C11.9702 4.31982 13.1288 4.55029 14.2098 4.99806C15.2909 5.44583 16.2731 6.10213 17.1005 6.9295C17.9278 7.75687 18.5841 8.7391 19.0319 9.82012C19.4797 10.9011 19.7101 12.0597 19.7101 13.2298V22.1398C19.7101 23.1244 19.319 24.0687 18.6228 24.765C17.9265 25.4612 16.9823 25.8523 15.9976 25.8523H12.8286C12.6983 26.0781 12.5109 26.2655 12.2851 26.3959C12.0594 26.5262 11.8033 26.5948 11.5426 26.5948H10.0576C9.66379 26.5948 9.28608 26.4384 9.00758 26.1599C8.72909 25.8814 8.57264 25.5037 8.57264 25.1098C8.57264 24.716 8.72909 24.3383 9.00758 24.0598C9.28608 23.7813 9.66379 23.6248 10.0576 23.6248H11.5426C11.8033 23.6248 12.0594 23.6935 12.2851 23.8238C12.5109 23.9541 12.6983 24.1416 12.8286 24.3673H15.9976C16.5884 24.3673 17.155 24.1326 17.5727 23.7149C17.9905 23.2972 18.2251 22.7306 18.2251 22.1398H16.7401C16.3463 22.1398 15.9686 21.9834 15.6901 21.7049C15.4116 21.4264 15.2551 21.0487 15.2551 20.6548V16.1998C15.2551 15.806 15.4116 15.4283 15.6901 15.1498C15.9686 14.8713 16.3463 14.7148 16.7401 14.7148H18.2251V13.2298C18.2251 12.2548 18.0331 11.2892 17.6599 10.3884C17.2868 9.48756 16.7399 8.66903 16.0504 7.97956C15.3609 7.29008 14.5424 6.74316 13.6416 6.37002C12.7407 5.99688 11.7752 5.80482 10.8001 5.80482Z" fill="#80542B"/>
</g>
</g>
<defs>
<clipPath id="clip0_746_1534">
<rect width="27" height="27" fill="white"/>
</clipPath>
<clipPath id="clip1_746_1534">
<rect width="23.76" height="23.76" fill="white" transform="translate(-1.08008 4.31982)"/>
</clipPath>
</defs>
</svg>
