<svg width="172" height="183" viewBox="0 0 172 183" fill="none" xmlns="http://www.w3.org/2000/svg">
<path d="M0 132.602C0 127.079 4.47715 122.602 10 122.602H162C167.523 122.602 172 127.079 172 132.602V172.602C172 178.124 167.523 182.602 162 182.602H10C4.47716 182.602 0 178.124 0 172.602V132.602Z" fill="#363636"/>
<path d="M23.2188 7.88281C22.8995 7.88281 22.6406 7.62398 22.6406 7.30469C22.6406 6.9854 22.8995 6.72656 23.2188 6.72656H25.9375C26.2568 6.72656 26.5156 6.9854 26.5156 7.30469C26.5156 7.62398 26.2568 7.88281 25.9375 7.88281H23.2188ZM34.8121 8.5625C34.8121 9.23958 34.6428 9.81771 34.3042 10.2969C33.9709 10.7708 33.5022 11.1328 32.898 11.3828C32.2938 11.6328 31.5829 11.7578 30.7652 11.7578C30.3329 11.7578 29.924 11.737 29.5386 11.6953C29.1532 11.6536 28.799 11.5938 28.4761 11.5156C28.2977 11.4724 28.1311 11.4237 27.9765 11.3694C27.7577 11.2925 27.6246 11.0784 27.6246 10.8466C27.6246 10.421 28.0599 10.1255 28.4679 10.2467C28.6517 10.3013 28.8472 10.3545 29.0542 10.4062C29.6167 10.5417 30.2053 10.6094 30.8199 10.6094C31.3928 10.6094 31.8772 10.5339 32.273 10.3828C32.6688 10.2266 32.9683 10.0052 33.1714 9.71875C33.3798 9.42708 33.4839 9.07812 33.4839 8.67188C33.4839 8.28125 33.398 7.95573 33.2261 7.69531C33.0542 7.42969 32.7678 7.1901 32.3667 6.97656C31.9709 6.75781 31.4292 6.52604 30.7417 6.28125C30.2574 6.10938 29.8303 5.92188 29.4605 5.71875C29.0907 5.51042 28.7808 5.27604 28.5308 5.01562C28.2808 4.75521 28.0907 4.45312 27.9605 4.10938C27.8355 3.76562 27.773 3.3724 27.773 2.92969C27.773 2.32031 27.9266 1.79948 28.2339 1.36719C28.5464 0.929688 28.9761 0.596354 29.523 0.367188C30.0751 0.132812 30.7079 0.015625 31.4214 0.015625C32.0308 0.015625 32.5933 0.0729167 33.1089 0.1875C33.4249 0.257002 33.7245 0.340876 34.0078 0.439122C34.3117 0.544474 34.4536 0.882668 34.3439 1.18495C34.2245 1.51385 33.8547 1.67444 33.5227 1.56421C33.293 1.48799 33.0561 1.41971 32.8121 1.35938C32.3537 1.24479 31.8798 1.1875 31.3902 1.1875C30.9006 1.1875 30.4865 1.26042 30.148 1.40625C29.8147 1.54688 29.5595 1.7474 29.3824 2.00781C29.2053 2.26823 29.1167 2.57812 29.1167 2.9375C29.1167 3.33854 29.2001 3.67188 29.3667 3.9375C29.5386 4.20312 29.8095 4.4401 30.1792 4.64844C30.5542 4.85156 31.049 5.0651 31.6636 5.28906C32.3355 5.53385 32.9058 5.79427 33.3746 6.07031C33.8433 6.34115 34.2001 6.67448 34.4449 7.07031C34.6897 7.46094 34.8121 7.95833 34.8121 8.5625ZM43.1554 11.0156C43.1554 11.3392 42.893 11.6016 42.5694 11.6016H39.9757C38.2196 11.6016 36.796 10.178 36.796 8.42188V3.35937C36.796 1.60328 38.2196 0.179688 39.9757 0.179688H42.5694C42.893 0.179688 43.1554 0.442021 43.1554 0.765625C43.1554 1.08923 42.893 1.35156 42.5694 1.35156H39.9718C38.9513 1.35156 38.1241 2.17879 38.1241 3.19922C38.1241 4.21965 38.9513 5.04688 39.9718 5.04688H42.2882C42.6075 5.04688 42.8663 5.30571 42.8663 5.625C42.8663 5.94429 42.6075 6.20312 42.2882 6.20312H40.2374C39.0703 6.20312 38.1241 7.14927 38.1241 8.31641C38.1241 9.48354 39.0703 10.4297 40.2374 10.4297H42.5694C42.893 10.4297 43.1554 10.692 43.1554 11.0156ZM48.5338 11.6016C46.767 11.6016 45.3346 10.1692 45.3346 8.40234V0.84375C45.3346 0.476999 45.6319 0.179688 45.9987 0.179688C46.3654 0.179688 46.6628 0.476998 46.6628 0.84375V7.87891C46.6628 9.27903 47.7978 10.4141 49.1979 10.4141H51.1393C51.4672 10.4141 51.7331 10.6799 51.7331 11.0078C51.7331 11.3357 51.4672 11.6016 51.1393 11.6016H48.5338ZM59.7014 11.0156C59.7014 11.3392 59.439 11.6016 59.1154 11.6016H56.5217C54.7656 11.6016 53.342 10.178 53.342 8.42188V3.35937C53.342 1.60328 54.7656 0.179688 56.5217 0.179688H59.1154C59.439 0.179688 59.7014 0.442021 59.7014 0.765625C59.7014 1.08923 59.439 1.35156 59.1154 1.35156H56.5178C55.4973 1.35156 54.6701 2.17879 54.6701 3.19922C54.6701 4.21965 55.4973 5.04688 56.5178 5.04688H58.8342C59.1535 5.04688 59.4123 5.30571 59.4123 5.625C59.4123 5.94429 59.1535 6.20312 58.8342 6.20312H56.7834C55.6163 6.20312 54.6701 7.14927 54.6701 8.31641C54.6701 9.48354 55.6163 10.4297 56.7834 10.4297H59.1154C59.439 10.4297 59.7014 10.692 59.7014 11.0156ZM66.7634 1.1875C66.1332 1.1875 65.5655 1.29688 65.0603 1.51562C64.5603 1.72917 64.1332 2.04167 63.7791 2.45312C63.4301 2.85938 63.1619 3.35156 62.9744 3.92969C62.7869 4.50781 62.6931 5.15885 62.6931 5.88281C62.6931 6.84115 62.8416 7.67448 63.1384 8.38281C63.4405 9.08594 63.8884 9.63021 64.4822 10.0156C65.0812 10.401 65.8285 10.5938 66.7244 10.5938C67.2348 10.5938 67.714 10.5521 68.1619 10.4688C68.3587 10.4303 68.5531 10.3879 68.7451 10.3416C69.1146 10.2524 69.4822 10.5246 69.4822 10.9047C69.4822 11.1406 69.3365 11.354 69.1111 11.4233C68.8077 11.5166 68.4939 11.589 68.1697 11.6406C67.7114 11.7188 67.1671 11.7578 66.5369 11.7578C65.3754 11.7578 64.4041 11.5182 63.6228 11.0391C62.8468 10.5547 62.2634 9.8724 61.8728 8.99219C61.4874 8.11198 61.2947 7.07292 61.2947 5.875C61.2947 5.01042 61.4145 4.22135 61.6541 3.50781C61.8989 2.78906 62.253 2.16927 62.7166 1.64844C63.1853 1.1276 63.7582 0.726562 64.4353 0.445312C65.1176 0.158854 65.8989 0.015625 66.7791 0.015625C67.3572 0.015625 67.9145 0.0729167 68.4509 0.1875C68.7626 0.254077 69.0568 0.337358 69.3333 0.437343C69.6572 0.554451 69.7862 0.92928 69.6391 1.24071C69.4915 1.55331 69.1204 1.68702 68.7948 1.57091C68.5954 1.49982 68.3871 1.43452 68.1697 1.375C67.7374 1.25 67.2687 1.1875 66.7634 1.1875ZM75.1146 10.9336C75.1146 11.3025 74.8155 11.6016 74.4466 11.6016C74.0777 11.6016 73.7786 11.3025 73.7786 10.9336V3.14844C73.7786 2.15605 72.9741 1.35156 71.9818 1.35156H70.7708C70.4472 1.35156 70.1849 1.08923 70.1849 0.765625C70.1849 0.442021 70.4472 0.179688 70.7708 0.179688H78.1068C78.4304 0.179688 78.6927 0.442021 78.6927 0.765625C78.6927 1.08923 78.4304 1.35156 78.1068 1.35156H76.9036C75.9156 1.35156 75.1146 2.15255 75.1146 3.14062V10.9336ZM80.7313 11.6016C80.3646 11.6016 80.0672 11.3043 80.0672 10.9375V0.84375C80.0672 0.476999 80.3646 0.179688 80.7313 0.179688C81.0981 0.179688 81.3954 0.476998 81.3954 0.84375V10.9375C81.3954 11.3043 81.0981 11.6016 80.7313 11.6016ZM94.0902 5.875C94.0902 6.75521 93.9783 7.55729 93.7543 8.28125C93.5303 9 93.197 9.61979 92.7543 10.1406C92.3168 10.6562 91.7725 11.0547 91.1215 11.3359C90.4705 11.6172 89.7152 11.7578 88.8559 11.7578C87.9705 11.7578 87.197 11.6172 86.5356 11.3359C85.8793 11.0547 85.3324 10.6536 84.8949 10.1328C84.4626 9.61198 84.1371 8.98958 83.9184 8.26562C83.7048 7.54167 83.5981 6.73958 83.5981 5.85938C83.5981 4.69271 83.7908 3.66927 84.1762 2.78906C84.5616 1.90885 85.1449 1.22396 85.9262 0.734375C86.7126 0.244792 87.697 0 88.8793 0C90.0095 0 90.96 0.242188 91.7309 0.726562C92.5069 1.21094 93.0928 1.89323 93.4887 2.77344C93.8897 3.64844 94.0902 4.68229 94.0902 5.875ZM84.9965 5.875C84.9965 6.84375 85.1345 7.68229 85.4106 8.39062C85.6866 9.09896 86.1085 9.64583 86.6762 10.0312C87.2491 10.4167 87.9757 10.6094 88.8559 10.6094C89.7413 10.6094 90.4652 10.4167 91.0277 10.0312C91.5955 9.64583 92.0147 9.09896 92.2856 8.39062C92.5564 7.68229 92.6918 6.84375 92.6918 5.875C92.6918 4.40104 92.3819 3.25 91.7621 2.42188C91.1475 1.58854 90.1866 1.17188 88.8793 1.17188C87.9939 1.17188 87.2647 1.36198 86.6918 1.74219C86.1189 2.1224 85.6918 2.66406 85.4106 3.36719C85.1345 4.0651 84.9965 4.90104 84.9965 5.875ZM105.215 10.6093C105.215 11.1573 104.771 11.6016 104.223 11.6016C103.886 11.6016 103.573 11.4314 103.39 11.1495L97.4685 2.02554C97.4613 2.01448 97.449 2.00781 97.4359 2.00781C97.4134 2.00781 97.3957 2.0267 97.397 2.04908C97.4121 2.29433 97.4295 2.57224 97.4492 2.88281C97.47 3.20573 97.4856 3.55208 97.4961 3.92188C97.5117 4.28646 97.5195 4.65885 97.5195 5.03906V10.9844C97.5195 11.3252 97.2432 11.6016 96.9023 11.6016C96.5614 11.6016 96.2851 11.3252 96.2851 10.9844V1.16683C96.2851 0.621646 96.7271 0.179688 97.2723 0.179688C97.6067 0.179688 97.9184 0.349029 98.1004 0.62961L104.002 9.72663C104.008 9.73633 104.019 9.74219 104.03 9.74219C104.05 9.74219 104.065 9.7257 104.064 9.70611C104.054 9.52645 104.042 9.28067 104.027 8.96875C104.012 8.63021 103.996 8.26823 103.98 7.88281C103.97 7.49219 103.965 7.13021 103.965 6.79688V0.804688C103.965 0.45951 104.245 0.179688 104.59 0.179688C104.935 0.179688 105.215 0.45951 105.215 0.804688V10.6093ZM116.91 10.6093C116.91 11.1573 116.465 11.6016 115.917 11.6016C115.581 11.6016 115.268 11.4314 115.085 11.1495L109.163 2.02554C109.156 2.01448 109.144 2.00781 109.131 2.00781C109.108 2.00781 109.091 2.0267 109.092 2.04908C109.107 2.29433 109.124 2.57224 109.144 2.88281C109.165 3.20573 109.181 3.55208 109.191 3.92188C109.207 4.28646 109.214 4.65885 109.214 5.03906V10.9844C109.214 11.3252 108.938 11.6016 108.597 11.6016C108.256 11.6016 107.98 11.3252 107.98 10.9844V1.16683C107.98 0.621646 108.422 0.179688 108.967 0.179688C109.302 0.179688 109.613 0.349029 109.795 0.62961L115.696 9.72663C115.703 9.73633 115.714 9.74219 115.725 9.74219C115.745 9.74219 115.76 9.7257 115.759 9.70611C115.749 9.52645 115.737 9.28067 115.722 8.96875C115.707 8.63021 115.691 8.26823 115.675 7.88281C115.665 7.49219 115.66 7.13021 115.66 6.79688V0.804688C115.66 0.45951 115.94 0.179688 116.285 0.179688C116.63 0.179688 116.91 0.45951 116.91 0.804688V10.6093ZM126.034 11.0156C126.034 11.3392 125.772 11.6016 125.448 11.6016H122.855C121.098 11.6016 119.675 10.178 119.675 8.42188V3.35937C119.675 1.60328 121.098 0.179688 122.855 0.179688H125.448C125.772 0.179688 126.034 0.442021 126.034 0.765625C126.034 1.08923 125.772 1.35156 125.448 1.35156H122.851C121.83 1.35156 121.003 2.17879 121.003 3.19922C121.003 4.21965 121.83 5.04688 122.851 5.04688H125.167C125.486 5.04688 125.745 5.30571 125.745 5.625C125.745 5.94429 125.486 6.20312 125.167 6.20312H123.116C121.949 6.20312 121.003 7.14927 121.003 8.31641C121.003 9.48354 121.949 10.4297 123.116 10.4297H125.448C125.772 10.4297 126.034 10.692 126.034 11.0156ZM131.299 0.179688C132.237 0.179688 133.01 0.296875 133.62 0.53125C134.234 0.760417 134.693 1.11198 134.995 1.58594C135.297 2.0599 135.448 2.66406 135.448 3.39844C135.448 4.0026 135.339 4.50781 135.12 4.91406C134.901 5.3151 134.615 5.64062 134.26 5.89062C133.726 6.2678 133.452 6.99987 133.792 7.55814L135.65 10.6023C135.918 11.0401 135.603 11.6016 135.09 11.6016C134.857 11.6016 134.641 11.4781 134.523 11.2771L132.354 7.58176C132.083 7.11974 131.588 6.83594 131.052 6.83594C130.218 6.83594 129.542 7.51209 129.542 8.34616V10.9375C129.542 11.3043 129.244 11.6016 128.878 11.6016C128.511 11.6016 128.214 11.3043 128.214 10.9375V3.26562C128.214 1.56131 129.595 0.179688 131.299 0.179688ZM131.221 1.32812C130.294 1.32812 129.542 2.08015 129.542 3.00781V3.89844C129.542 4.89945 130.353 5.71094 131.354 5.71094C132.286 5.71094 132.971 5.52083 133.409 5.14062C133.852 4.76042 134.073 4.20052 134.073 3.46094C134.073 2.6849 133.839 2.13542 133.37 1.8125C132.906 1.48958 132.19 1.32812 131.221 1.32812ZM137.393 7.88281C137.073 7.88281 136.815 7.62398 136.815 7.30469C136.815 6.9854 137.073 6.72656 137.393 6.72656H140.112C140.431 6.72656 140.69 6.9854 140.69 7.30469C140.69 7.62398 140.431 7.88281 140.112 7.88281H137.393Z" fill="#363636"/>
</svg>
