<svg width="256" height="213" viewBox="0 0 256 213" fill="none" xmlns="http://www.w3.org/2000/svg">
<path d="M27.4213 73.0417C35.715 63.5914 42.8113 52.8869 48.5568 41.2678C55.88 26.4559 67.3416 14.1508 80.8451 7.06749C98.7967 -2.34744 120.027 -2.3557 137.267 7.04245C156.033 17.2721 169.542 37.5341 188.962 46.1542C200.514 51.2807 213.489 51.9454 224.861 57.5407C247.324 68.5896 259.752 99.2096 254.992 127.335C250.231 155.464 229.86 179.407 205.866 188.033C185.917 195.206 164.739 192.649 144.148 195.732C112.957 200.401 81.814 218.076 51.4045 211.073C31.8998 206.582 14.8556 191.486 6.31275 171.139C-2.22796 150.798 -2.09578 125.612 6.66782 104.521C11.6015 92.6446 19.1359 82.4802 27.4181 73.0412L27.4213 73.0417Z" fill="#FDFDFC"/>
</svg>
